<?xml version="1.0" standalone="no"?>
<!DOCTYPE svg PUBLIC "-//W3C//DTD SVG 20010904//EN"
 "http://www.w3.org/TR/2001/REC-SVG-20010904/DTD/svg10.dtd">
<svg version="1.0" xmlns="http://www.w3.org/2000/svg"
 width="700.000000pt" height="700.000000pt" viewBox="0 0 700.000000 700.000000"
 preserveAspectRatio="xMidYMid meet">
<metadata>
Created by potrace 1.11, written by Peter Selinger 2001-2013
</metadata>
<g transform="translate(0.000000,700.000000) scale(0.100000,-0.100000)"
fill="#000000" stroke="none">
<path d="M2384 6522 c-6 -9 -30 -53 -54 -97 -23 -44 -46 -84 -50 -90 -11 -15
-171 -334 -225 -450 -91 -194 -112 -241 -170 -380 -31 -77 -63 -153 -70 -170
-66 -152 -276 -763 -292 -847 -1 -10 -18 -73 -37 -140 -19 -68 -38 -139 -42
-158 -4 -19 -9 -39 -10 -45 -17 -69 -57 -246 -60 -265 -2 -14 -7 -36 -9 -50
-8 -40 -14 -71 -25 -130 -6 -30 -12 -65 -14 -77 -3 -12 -8 -50 -11 -85 -4 -35
-10 -97 -15 -138 -8 -78 -6 -496 3 -540 3 -14 8 -51 12 -84 7 -64 13 -101 20
-132 3 -12 7 -39 10 -60 4 -21 8 -47 11 -56 3 -9 6 -25 8 -35 8 -39 56 -201
80 -268 76 -215 189 -423 330 -605 52 -67 221 -240 291 -298 51 -42 259 -182
270 -182 5 0 16 -6 24 -13 47 -39 355 -159 481 -188 25 -6 54 -13 65 -15 57
-13 166 -33 215 -39 30 -4 57 -8 60 -10 10 -6 257 -18 365 -17 92 0 215 6 345
17 31 3 138 16 165 21 11 2 40 6 65 9 25 3 86 14 137 24 93 18 113 15 113 -16
0 -28 74 -163 115 -209 44 -51 107 -89 162 -97 41 -6 154 16 223 44 132 54
291 184 326 267 21 52 18 116 -10 170 -28 55 -64 90 -140 133 l-56 31 83 66
c109 88 318 300 416 421 259 323 402 624 476 1001 14 74 14 373 -1 455 -8 44
-17 96 -20 115 -12 72 -88 279 -139 380 -78 151 -72 145 -127 126 -143 -48
-358 -37 -540 29 -258 93 -450 271 -538 500 -12 31 -15 41 -30 115 -9 47 -6
244 5 295 29 133 117 320 216 458 82 114 82 107 -14 261 -32 52 -155 180 -226
236 -24 19 -49 40 -55 45 -53 51 -315 204 -486 284 -167 78 -496 208 -570 225
-8 2 -42 13 -75 24 -157 53 -606 175 -715 196 -46 8 -165 35 -180 39 -47 16
-76 15 -86 -1z"/>
</g>
</svg>
