<svg width="1024" height="300" version="1.1" viewBox="0 0 270.93333 79.374999" xmlns="http://www.w3.org/2000/svg"><g transform="translate(0 -217.62)"><ellipse cx="139.72" cy="263.48" rx="4.2161" ry="2.8248" stroke="#000" stroke-width=".26458"/><g shape-rendering="auto"><path d="m131.58 245.26-0.24218 0.10547c-0.29961 0.23987 0.0356 0.6443-0.0136 0.89453-0.11943 0.59127-0.47007 1.3989-1.338 2.6599 0 0-0.98625-2.5927-1.3142-3.1443 0.23105-0.73785-1.4332-0.54784-0.3003 0.19743 0.70058 1.3416 1.1295 3.0847 1.1295 3.0847-0.13477 6e-3 -2.1387-0.0898-2.8767-0.13847-0.15203-0.0631-0.57948-0.54376-0.75156-0.18079l-0.12695 0.23242c0.11858 0.64621 0.86197 0.2791 0.86197 0.2791 1.4333 0.0657 2.4291 0.39108 2.6562 0.38368-0.18067 0.15812-1.8937 1.3664-2.5238 1.8512 0 0-0.94566 0.0875-0.71507 0.44694l0.0762 0.2539c0.3722 0.55321 0.86786-0.45354 0.86786-0.45354 1.787-1.3357 2.5279-1.7487 2.7949-1.797 0.32355 0.1119 1.8693 1.945 3.7064 4.4869 0.939 1.2993 1.7823 2.8222 2.5137 4.0206s0.90596 2.3418 0.97716 2.8945l1.4211-0.62535c-0.0853-0.66215-1.3288-1.3468-2.0663-2.5553-0.73753-1.2084-1.6895-2.5862-2.6309-3.8887-1.8265-2.5272-3.0862-4.3578-3.1765-4.6757 2.012-0.54736 2.3987-1.2408 2.8991-1.7396 0.30091-0.25439 1.1908-0.19382 0.92173-0.7154-0.25322-0.18432-0.56843-0.44059-0.73241-0.27878-0.0437 0.12923-0.2122 0.49075-0.44669 0.72448-0.44039 0.43902-0.76321 1.0811-2.6923 1.5881 0.85562-1.2549 0.92769-1.979 1.2255-2.8806 0.0923-0.4073 0.60799-1.0418-0.1038-1.0304z" color="#000000" color-rendering="auto" dominant-baseline="auto" image-rendering="auto" solid-color="#000000" style="font-feature-settings:normal;font-variant-alternates:normal;font-variant-caps:normal;font-variant-ligatures:normal;font-variant-numeric:normal;font-variant-position:normal;isolation:auto;mix-blend-mode:normal;shape-padding:0;text-decoration-color:#000000;text-decoration-line:none;text-decoration-style:solid;text-indent:0;text-orientation:mixed;text-transform:none;white-space:normal"/><path d="m158.85 255.88-0.11138-0.23951c-0.24719-0.2936-0.64324 0.0514-0.8946 8e-3 -0.59403-0.10486-1.41-0.43553-2.692-1.2721 0 0 2.5677-1.0497 3.111-1.3911 0.7433 0.21284 0.66446-1.3176-0.0527-0.16678-1.3239 0.73336-3.208 1.0764-3.208 1.0764-9e-3 -0.1346-0.0452-2.1205-0.0146-2.8595 0.0593-0.15357 0.61169-0.61234 0.24456-0.77547l-0.23544-0.12124c-0.64309 0.13445-0.17516 0.86655-0.17516 0.86655-0.0304 1.4345-0.41388 2.44-0.40089 2.6668-0.16252-0.17673-1.4126-1.8595-1.9127-2.4775 0 0-0.11073-0.94323-0.4644-0.70387l-0.25194 0.0824c-0.54389 0.3857 0.47108 0.70767 0.47108 0.70767 1.3792 1.7536 1.814 2.6329 1.8689 2.8987-0.10391 0.3262-1.8984 1.9166-4.3944 3.8156-1.2758 0.97067-2.7775 1.8512-3.9576 2.6119-1.1801 0.76069-2.3188 0.96328-2.8695 1.048l0.6601 1.4053c0.65986-0.10156 1.3137-1.3616 2.5037-2.1286 1.1899-0.76702 2.5438-1.7526 3.8228-2.7257 2.4815-1.8881 4.2806-3.1924 4.5961-3.2906 0.59668 1.9979 1.2994 2.3675 1.8104 2.8554 0.26171 0.29456 0.22304 1.1857 0.73785 0.90385 0.17803-0.25768 0.2785-0.54237 0.11271-0.70233-0.13029-0.0405-0.51031-0.11698-0.74974-0.34566-0.44946-0.42973-0.93709-0.85619-1.4914-2.7722 1.2755 0.8245 1.9968 0.69689 2.9054 0.97246 0.40945 0.0822 1.0609 0.76403 1.032 0.0527z" color="#000000" color-rendering="auto" dominant-baseline="auto" image-rendering="auto" solid-color="#000000" style="font-feature-settings:normal;font-variant-alternates:normal;font-variant-caps:normal;font-variant-ligatures:normal;font-variant-numeric:normal;font-variant-position:normal;isolation:auto;mix-blend-mode:normal;shape-padding:0;text-decoration-color:#000000;text-decoration-line:none;text-decoration-style:solid;text-indent:0;text-orientation:mixed;text-transform:none;white-space:normal"/><path d="m157.09 274.59 0.14315-0.22198c0.11644-0.36571-0.38666-0.51662-0.48405-0.75238-0.22824-0.55837-0.38392-1.425-0.36027-2.9556 0 0 2.2578 1.6117 2.8364 1.8891 0.21654 0.74223 1.4689-0.14097 0.11294-0.13355-1.3266-0.7285-2.622-2.139-2.622-2.139 0.10904-0.0794 1.7694-1.1696 2.4108-1.538 0.16152-0.0318 0.84426 0.19066 0.78636-0.20688l-0.0231-0.26382c-0.45681-0.47219-0.82637 0.31417-0.82637 0.31417-1.2295 0.73963-2.2846 0.95174-2.4694 1.0837 0.0628-0.23174 0.81909-2.1868 1.075-2.9395 0 0 0.73869-0.59688 0.34756-0.76831l-0.20411-0.16913c-0.61639-0.25424-0.34721 0.77599-0.34721 0.77599-0.74734 2.1021-1.259 2.939-1.4546 3.1272-0.33133 0.0861-2.6339-0.58313-5.5716-1.681-1.5016-0.56117-3.0475-1.3615-4.3205-1.9538-1.273-0.59226-2.0518-1.4472-2.4174-1.8679l-0.83645 1.3081c0.43795 0.50392 1.8525 0.38473 3.1361 0.98197 1.2836 0.59722 2.8395 1.2165 4.3449 1.7791 2.9208 1.0915 4.9839 1.9172 5.2352 2.1318-1.3715 1.5706-1.3092 2.3621-1.4492 3.0546-0.10951 0.37851-0.88385 0.82123-0.37082 1.1063 0.31293 0.0131 0.60732-0.0538 0.65416-0.27938-0.0353-0.1318-0.17332-0.49402-0.10764-0.81853 0.12366-0.60942 0.2242-1.2494 1.549-2.7404-0.0169 1.5187 0.47588 2.0606 0.72757 2.9762 0.14892 0.39016-0.0802 1.3049 0.50602 0.90097z" color="#000000" color-rendering="auto" dominant-baseline="auto" image-rendering="auto" solid-color="#000000" style="font-feature-settings:normal;font-variant-alternates:normal;font-variant-caps:normal;font-variant-ligatures:normal;font-variant-numeric:normal;font-variant-position:normal;isolation:auto;mix-blend-mode:normal;shape-padding:0;text-decoration-color:#000000;text-decoration-line:none;text-decoration-style:solid;text-indent:0;text-orientation:mixed;text-transform:none;white-space:normal"/><path d="m137.74 266.03c-1.3764 9.6442-4.2784 18.705-7.5978 27.089l0.21709 0.0495c6.9325-12.523 5.8979-24.658 10.629-26.876z" color="#000000" color-rendering="auto" dominant-baseline="auto" image-rendering="auto" solid-color="#000000" style="font-feature-settings:normal;font-variant-alternates:normal;font-variant-caps:normal;font-variant-ligatures:normal;font-variant-numeric:normal;font-variant-position:normal;isolation:auto;mix-blend-mode:normal;shape-padding:0;text-decoration-color:#000000;text-decoration-line:none;text-decoration-style:solid;text-indent:0;text-orientation:mixed;text-transform:none;white-space:normal"/><path d="m141.49 243.97-0.26305-0.0241c-0.37796 0.0667-0.27795 0.58234-0.4412 0.77827-0.38852 0.46143-1.0837 1.0017-2.4503 1.6916 0 0 0.37888-2.748 0.35591-3.3892 0.55679-0.53646-0.99446-1.1684-0.3582 0.0292-0.0291 1.5132-0.48932 3.2483-0.48932 3.2483-0.12113-0.0594-1.8332-1.1051-2.4574-1.502-0.1031-0.12832-0.24744-0.75515-0.5726-0.51927l-0.2229 0.14298c-0.20609 0.62385 0.62228 0.65852 0.62228 0.65852 1.226 0.74547 1.9435 1.5088 2.1462 1.6112-0.23439 0.052-2.9504-0.30044-3.1259-0.45232 0 0-0.67287-0.97922-0.98798-0.5299l-0.0784 0.75043c-0.0501 0.26055 1.0506 0.16444 1.0506 0.16444 1.1154 1e-3 2.886 0.33389 3.1435 0.41969-0.45066 0.37665-2.6624 1.5442-2.6624 1.5442s-0.58751 0.0795-0.55591 0.23421c0 0-0.22862 0.12965 0.16354 0.60367 0.45626-0.0612 0.59091-0.54719 0.59091-0.54719s1.6037-1.208 2.8891-1.447c0.23132 0.70939 0.86729 4.7013 0.96527 5.4792 0.20032 1.5905 0.20937 3.3313 0.27596 4.7337 0.0666 1.4024-0.32889 2.4893-0.53177 3.0083l1.5469 0.13338c0.24292-0.62186-0.51948-1.8193-0.58661-3.2334-0.0671-1.4141-0.24119-3.0797-0.44203-4.6742-0.38964-3.0937-0.6164-5.3042-0.54309-5.6265 2.0279 0.48532 2.6999 0.0626 3.3782-0.13496 0.38608-0.0788 1.1378 0.40141 1.152-0.18532-0.13371-0.28322-0.28727-0.65932-0.5088-0.59606-0.10038 0.0924-0.42166 0.32873-0.73955 0.42126-0.59704 0.17383-1.1884 0.58225-3.1242 0.10128 1.3529-0.69033 1.6864-1.3314 2.3803-1.9794 0.43766-0.20555 1.1106-0.5819 0.48065-0.91351z" color="#000000" color-rendering="auto" dominant-baseline="auto" image-rendering="auto" solid-color="#000000" style="font-feature-settings:normal;font-variant-alternates:normal;font-variant-caps:normal;font-variant-ligatures:normal;font-variant-numeric:normal;font-variant-position:normal;isolation:auto;mix-blend-mode:normal;shape-padding:0;text-decoration-color:#000000;text-decoration-line:none;text-decoration-style:solid;text-indent:0;text-orientation:mixed;text-transform:none;white-space:normal"/><path d="m151.73 247.86-0.21181-0.15785c-0.35723-0.14034-0.541 0.35171-0.78251 0.43365-0.57222 0.19086-1.4472 0.28895-2.9729 0.16425 0 0 1.7573-2.1464 2.0723-2.7054 0.75492-0.16704-0.23856-1.5156-0.32079-0.16201-0.8145 1.2756-2.1126 2.5156-2.1126 2.5156-0.0724-0.11387-0.98709-1.8994-1.3124-2.5636-0.0213-0.16323 0.18301-0.77329-0.21745-0.74176l-0.26476 6e-3c-0.50137 0.42462 0.18717 0.88648 0.18717 0.88648 0.65676 1.2757 0.87044 2.3013 0.98992 2.4945-0.22708-0.078-2.36-1.796-2.4304-2.0171 0 0-0.063-1.1864-0.56624-0.96761l-0.45849 0.59923c-0.17872 0.1961 0.81036 0.68853 0.81036 0.68853 0.95099 0.58296 2.2876 1.7909 2.4625 1.9985-0.58099 0.0861-3.0769-0.0722-3.0769-0.0722s-0.54264-0.23879-0.59644-0.0903c0 0-0.26268-9e-3 -0.17552 0.60029 0.42114 0.1859 0.78962-0.15838 0.78962-0.15838s1.9984-0.19353 3.2196 0.27334c-0.17288 0.72585-1.7136 4.4629-2.036 5.1776-0.65915 1.4613-1.5599 2.9509-2.235 4.182-0.67507 1.2311-1.5796 1.9518-2.0236 2.2887l1.25 0.92105c0.53175-0.4037 0.50631-1.823 1.187-3.0644 0.68075-1.2413 1.4014-2.7529 2.0622-4.2179 1.2821-2.8424 2.2423-4.8463 2.473-5.083 1.4765 1.4723 2.2704 1.4624 2.9522 1.6479 0.37046 0.13422 0.76107 0.93617 1.0794 0.4431 0.034-0.31136 0.0991-0.71234-0.123-0.77399-0.13384 0.0264-0.53124 0.0603-0.85069-0.0266-0.60002-0.16329-1.3176-0.12352-2.7178-1.544 1.5143 0.11718 2.1333-0.25564 3.0634-0.44631 0.48062 0.0528 1.251 0.0832 0.88674-0.52841z" color="#000000" color-rendering="auto" dominant-baseline="auto" image-rendering="auto" solid-color="#000000" style="font-feature-settings:normal;font-variant-alternates:normal;font-variant-caps:normal;font-variant-ligatures:normal;font-variant-numeric:normal;font-variant-position:normal;isolation:auto;mix-blend-mode:normal;shape-padding:0;text-decoration-color:#000000;text-decoration-line:none;text-decoration-style:solid;text-indent:0;text-orientation:mixed;text-transform:none;white-space:normal"/><path d="m159.72 263.79-0.0126-0.26386c-0.11849-0.36506-0.61527-0.19448-0.83195-0.32898-0.51086-0.32076-1.1424-0.9343-2.0151-2.1919 0 0 2.774-6e-3 3.4058-0.11765 0.6085 0.47701 1.0192-1.1469-0.0786-0.35067-1.5026 0.18106-3.2848-0.034-3.2848-0.034 0.042-0.12824 0.84013-1.9688 1.1466-2.642 0.11255-0.12012 0.71352-0.34979 0.43482-0.63908l-0.1728-0.20068c-0.64641-0.11757-0.56583 0.70761-0.56583 0.70761-0.56823 1.3175-1.2246 2.134-1.298 2.349-0.084-0.22494-0.11172-2.9636 0.0144-3.1584 0 0 0.87639-0.80222 0.38773-1.0519l-0.75404 0.0265c-0.26498-0.0135-0.0171 1.0632-0.0171 1.0632 0.15374 1.1048 0.0697 2.9044 0.0204 3.1713-0.43551-0.39407-1.8985-2.4225-1.8985-2.4225s-0.16021-0.5708-0.30908-0.51804c0 0-0.15989-0.20861-0.57514 0.24569 0.1239 0.44336 0.62385 0.50931 0.62385 0.50931s1.4188 1.4207 1.8338 2.6604c-0.67044 0.32748-4.5355 1.511-5.2923 1.7159-1.5474 0.419-3.27 0.66943-4.6497 0.9299-1.3796 0.26049-2.5108 0.0196-3.053-0.10935l0.0825 1.5504c0.64956 0.15432 1.7297-0.76681 3.1208-1.0294 1.3912-0.26261 3.0164-0.66604 4.5677-1.0861 3.0098-0.81498 5.1674-1.3462 5.4968-1.3183-0.19935 2.0756 0.3125 2.6825 0.60224 3.3269 0.13163 0.37139-0.2397 1.1824 0.34332 1.1152 0.26209-0.1715 0.61315-0.37589 0.5197-0.5866-0.1054-0.0866-0.38398-0.37203-0.51976-0.67396-0.25497-0.56717-0.74147-1.0962-0.53365-3.0799 0.87127 1.244 1.5524 1.4854 2.2904 2.0827 0.26448 0.40477 0.7303 1.0191 0.97134 0.3493z" color="#000000" color-rendering="auto" dominant-baseline="auto" image-rendering="auto" solid-color="#000000" style="font-feature-settings:normal;font-variant-alternates:normal;font-variant-caps:normal;font-variant-ligatures:normal;font-variant-numeric:normal;font-variant-position:normal;isolation:auto;mix-blend-mode:normal;shape-padding:0;text-decoration-color:#000000;text-decoration-line:none;text-decoration-style:solid;text-indent:0;text-orientation:mixed;text-transform:none;white-space:normal"/><path d="m146.13 281.24 0.25101-0.0823c0.3204-0.21132 0.0238-0.64484 0.0959-0.88949 0.17335-0.57776 0.59684-1.3497 1.5771-2.5255 0 0 0.74353 2.6725 1.0192 3.2519-0.29799 0.71345 1.3766 0.67742 0.31714-0.16903-0.57415-1.4003-0.84082-3.1755-0.84082-3.1755 0.13479 6e-3 2.1213 0.28627 2.8518 0.40266 0.14573 0.0765 0.52696 0.5948 0.73171 0.2492l0.14749-0.21995c-0.0586-0.6544-0.83261-0.35726-0.83261-0.35726-1.4212-0.19736-2.3828-0.61301-2.6096-0.62653 0.1945-0.14079 2.8271-0.89586 3.0485-0.82611 0 0 1.0064 0.63148 1.1172 0.094l-0.22608-0.71984c-0.0575-0.25903-1.0295 0.26628-1.0295 0.26628-1.0241 0.44203-2.7813 0.83963-3.0517 0.86309 0.26405-0.52463 1.8303-2.4744 1.8303-2.4744s0.50764-0.30624 0.41718-0.43572c0 0 0.15858-0.20961-0.3898-0.48908-0.39444 0.23735-0.32505 0.73683-0.32505 0.73683s-0.99218 1.7455-2.0769 2.4753c-0.49399-0.5592-2.6628-3.9703-3.0616-4.6454-0.81544-1.3802-1.515-2.9742-2.133-4.2349-0.61803-1.2607-0.68666-2.4152-0.70654-2.9721l-1.4727 0.49188c0.024 0.66721 1.1992 1.4634 1.8224 2.7347 0.62313 1.2712 1.4443 2.7307 2.2618 4.1143 1.5861 2.6846 2.672 4.6233 2.7327 4.9482-2.0538 0.35983-2.5028 1.0147-3.0469 1.4653-0.323 0.22566-1.2036 0.0834-0.98368 0.62753 0.23503 0.20705 0.52542 0.4911 0.70369 0.34498 0.0554-0.12463 0.25651-0.46909 0.51146-0.68028 0.47893-0.39663 0.85951-1.0063 2.8271-1.3335-0.96753 1.1708-1.019 1.8915-1.3986 2.7619-0.31985 0.3626-0.78818 0.97503-0.0784 1.0292z" color="#000000" color-rendering="auto" dominant-baseline="auto" image-rendering="auto" solid-color="#000000" style="font-feature-settings:normal;font-variant-alternates:normal;font-variant-caps:normal;font-variant-ligatures:normal;font-variant-numeric:normal;font-variant-position:normal;isolation:auto;mix-blend-mode:normal;shape-padding:0;text-decoration-color:#000000;text-decoration-line:none;text-decoration-style:solid;text-indent:0;text-orientation:mixed;text-transform:none;white-space:normal"/><path d="m131.91 281.1-0.25101-0.0823c-0.3204-0.21132-0.0238-0.64484-0.0959-0.88949-0.17335-0.57776-0.59684-1.3497-1.5771-2.5255 0 0-0.74353 2.6725-1.0192 3.2519 0.29799 0.71345-1.3766 0.67742-0.31714-0.16903 0.57415-1.4003 0.84082-3.1755 0.84082-3.1755-0.13479 6e-3 -2.1213 0.28627-2.8518 0.40266-0.14573 0.0765-0.52696 0.5948-0.73171 0.2492l-0.14749-0.21995c0.0586-0.6544 0.83261-0.35726 0.83261-0.35726 1.4212-0.19736 2.3828-0.61301 2.6096-0.62653-0.1945-0.14079-2.8271-0.89586-3.0485-0.82611 0 0-1.0064 0.63148-1.1172 0.094l0.22608-0.71984c0.0575-0.25903 1.0295 0.26628 1.0295 0.26628 1.0241 0.44203 2.7813 0.83963 3.0517 0.86309-0.26405-0.52463-1.8303-2.4744-1.8303-2.4744s-0.50764-0.30624-0.41718-0.43572c0 0-0.15858-0.20961 0.3898-0.48908 0.39444 0.23735 0.32505 0.73683 0.32505 0.73683s0.99218 1.7455 2.0769 2.4753c0.49399-0.5592 2.6628-3.9703 3.0616-4.6454 0.81544-1.3802 1.515-2.9742 2.133-4.2349 0.61803-1.2607 0.68666-2.4152 0.70654-2.9721l1.4727 0.49188c-0.024 0.66721-1.1992 1.4634-1.8224 2.7347-0.62313 1.2712-1.4443 2.7307-2.2618 4.1143-1.5861 2.6846-2.672 4.6233-2.7327 4.9482 2.0538 0.35983 2.5028 1.0147 3.0469 1.4653 0.323 0.22566 1.2036 0.0834 0.98368 0.62753-0.23503 0.20705-0.52542 0.4911-0.70369 0.34498-0.0554-0.12463-0.25651-0.46909-0.51146-0.68028-0.47893-0.39663-0.85951-1.0063-2.8271-1.3335 0.96753 1.1708 1.019 1.8915 1.3986 2.7619 0.31985 0.3626 0.78818 0.97503 0.0784 1.0292z" color="#000000" color-rendering="auto" dominant-baseline="auto" image-rendering="auto" solid-color="#000000" style="font-feature-settings:normal;font-variant-alternates:normal;font-variant-caps:normal;font-variant-ligatures:normal;font-variant-numeric:normal;font-variant-position:normal;isolation:auto;mix-blend-mode:normal;shape-padding:0;text-decoration-color:#000000;text-decoration-line:none;text-decoration-style:solid;text-indent:0;text-orientation:mixed;text-transform:none;white-space:normal"/><path d="m121.58 272.74-0.12823-0.23095c-0.0914-0.37276 0.42073-0.48926 0.53409-0.71774 0.26543-0.54166 0.4793-1.3958 0.55911-2.9245 0 0-2.3615 1.4554-2.9575 1.6932-0.26619 0.72591-1.4703-0.4385-0.11776-0.33951 1.3728-0.6372 2.7748-1.7584 2.7748-1.7584-0.10293-0.0872-1.7508-1.2315-2.3658-1.6424-0.15888-0.0429-0.7908 0.0781-0.70615-0.3144l0.0412-0.26158c0.48767-0.44028 0.8536 0.30368 0.8536 0.30368 1.1768 0.82097 2.1647 1.1695 2.3402 1.3136-0.0471-0.23545-1.4653-2.5784-1.6752-2.6776 0 0-1.1675-0.2206-0.88347-0.69018l0.65501-0.37449c0.2182-0.15095 0.57434 0.89494 0.57434 0.89494 0.45096 1.0202 1.4699 2.506 1.6524 2.7069 0.16277-0.56432 0.33864-3.0591 0.33864-3.0591s-0.16433-0.56963-0.01-0.60315c0 0 0.0261-0.26153 0.61833-0.094 0.12804 0.44217-0.26223 0.76146-0.26223 0.76146s-0.45824 1.9548-0.15832 3.2273c0.74241-0.0745 4.6516-1.1033 5.4028-1.3276 1.5361-0.45846 3.1326-1.1525 4.4427-1.6575 1.3101-0.50491 2.145-1.3053 2.538-1.7004l0.74616 1.3616c-0.47099 0.47318-1.8742 0.25871-3.1953 0.76792-1.321 0.50918-2.9152 1.0219-4.4552 1.4815-2.9879 0.89176-5.102 1.5762-5.3673 1.7733 1.2623 1.6596 1.1466 2.4451 1.2396 3.1455 0.0837 0.38503 0.82635 0.87908 0.29524 1.1288-0.31313-8e-3 -0.71919 3e-3 -0.75068-0.22509 0.044-0.12908 0.13057-0.51845 0.087-0.84664-0.0818-0.61644 0.0532-1.3223-1.1679-2.8994-0.0858 1.5164-0.53775 2.0802-0.85074 2.9766-0.0118 0.48337-0.0843 1.2509-0.64189 0.80837z" color="#000000" color-rendering="auto" dominant-baseline="auto" image-rendering="auto" solid-color="#000000" style="font-feature-settings:normal;font-variant-alternates:normal;font-variant-caps:normal;font-variant-ligatures:normal;font-variant-numeric:normal;font-variant-position:normal;isolation:auto;mix-blend-mode:normal;shape-padding:0;text-decoration-color:#000000;text-decoration-line:none;text-decoration-style:solid;text-indent:0;text-orientation:mixed;text-transform:none;white-space:normal"/><path d="m119.75 260.62 0.0365-0.26163c0.15122-0.35276 0.6304-0.13775 0.85841-0.25207 0.53786-0.27302 1.2225-0.82667 2.2059-1.9998 0 0-2.762-0.25796-3.3811-0.42654-0.64931 0.41976-0.91074-1.2348 0.11015-0.34205 1.4799 0.3168 3.2743 0.26452 3.2743 0.26452-0.0298-0.13158-0.65782-2.037-0.90186-2.7352-0.10111-0.12985-0.6787-0.41332-0.37496-0.67593l0.19026-0.18419c0.65442-0.0583 0.49921 0.75608 0.49921 0.75608 0.44619 1.3637 1.0257 2.2364 1.0792 2.4571 0.104-0.21642 0.38046-2.9412 0.27256-3.1467 0 0-0.79989-0.87852-0.29055-1.0828l0.74851 0.0949c0.2651 0.0108-0.0796 1.0604-0.0796 1.0604-0.25348 1.0863-0.33326 2.8861-0.30841 3.1564 0.4695-0.35288 2.1107-2.24 2.1107-2.24s0.21139-0.55389 0.35484-0.48784c0 0 0.17817-0.19321 0.55049 0.29688-0.16371 0.43024-0.66753 0.45053-0.66753 0.45053s-1.542 1.2859-2.0679 2.4828c0.63787 0.38708 4.3795 1.9168 5.1146 2.1896 1.5029 0.55784 3.1957 0.96373 4.546 1.3484 1.3503 0.38475 2.4987 0.2476 3.0503 0.16894l-0.22302 1.5365c-0.66089 0.0947-1.6528-0.92079-3.0144-1.3087-1.3616-0.38789-2.9434-0.93731-4.4501-1.4966-2.9233-1.085-5.0238-1.81-5.3543-1.8121 0.01 2.0851-0.5549 2.643-0.90195 3.2584-0.16476 0.35792 0.13129 1.1993-0.44321 1.0793-0.24533-0.19475-0.57632-0.43023-0.46426-0.63138 0.11279-0.0766 0.41617-0.33561 0.57879-0.62399 0.30548-0.54164 0.83796-1.0243 0.81124-3.0187-0.98073 1.1597-1.6809 1.3382-2.4702 1.866-0.30019 0.37903-0.81983 0.94856-0.99904 0.25962z" color="#000000" color-rendering="auto" dominant-baseline="auto" image-rendering="auto" solid-color="#000000" style="font-feature-settings:normal;font-variant-alternates:normal;font-variant-caps:normal;font-variant-ligatures:normal;font-variant-numeric:normal;font-variant-position:normal;isolation:auto;mix-blend-mode:normal;shape-padding:0;text-decoration-color:#000000;text-decoration-line:none;text-decoration-style:solid;text-indent:0;text-orientation:mixed;text-transform:none;white-space:normal"/></g><g transform="rotate(235.96 204.66 252.37)"><g><path d="m193.19 250.12c0.14873 0.3523-0.10713 0.32203-0.0949 0.53911 0.21005 1.8036-1.826 4.2042-2.7765 4.9081l-1.1846-0.61028c1.0878-0.84369 3.4622-1.8003 3.7132-4.2041-0.13724-0.24859-0.32624-0.0877-0.50873-0.40964-0.25171-0.44408 0.51242-1.0267 0.85161-0.22322z" color="#000000" color-rendering="auto" dominant-baseline="auto" image-rendering="auto" shape-rendering="auto" solid-color="#000000" style="font-feature-settings:normal;font-variant-alternates:normal;font-variant-caps:normal;font-variant-ligatures:normal;font-variant-numeric:normal;font-variant-position:normal;isolation:auto;mix-blend-mode:normal;shape-padding:0;text-decoration-color:#000000;text-decoration-line:none;text-decoration-style:solid;text-indent:0;text-orientation:mixed;text-transform:none;white-space:normal"/><path d="m183.22 250.13c-0.14873 0.3523 0.10713 0.32203 0.0949 0.53911-0.21005 1.8036 1.826 4.2042 2.7765 4.9081l1.1846-0.61028c-1.0878-0.84369-3.4622-1.8003-3.7132-4.2041 0.13724-0.24859 0.32624-0.0877 0.50873-0.40964 0.25171-0.44408-0.51242-1.0267-0.85161-0.22322z" color="#000000" color-rendering="auto" dominant-baseline="auto" image-rendering="auto" shape-rendering="auto" solid-color="#000000" style="font-feature-settings:normal;font-variant-alternates:normal;font-variant-caps:normal;font-variant-ligatures:normal;font-variant-numeric:normal;font-variant-position:normal;isolation:auto;mix-blend-mode:normal;shape-padding:0;text-decoration-color:#000000;text-decoration-line:none;text-decoration-style:solid;text-indent:0;text-orientation:mixed;text-transform:none;white-space:normal"/><g stroke="#fff" stroke-linecap="round" stroke-linejoin="round" stroke-width=".26458"><ellipse cx="188.27" cy="268.31" rx="5.0588" ry="6.5894"/><ellipse cx="188.17" cy="258.96" rx="4.1638" ry="4.06"/><path transform="rotate(266.08)" d="m-271.43 170.42a7.9903 8.7167 0 0 1 -6.9834 8.6472 7.9903 8.7167 0 0 1 -8.7434 -6.4679"/><path transform="matrix(.068332 -.99766 -.99766 -.068332 0 0)" d="m-245.69-205.34a7.9903 8.7167 0 0 1 -6.9834 8.6472 7.9903 8.7167 0 0 1 -8.7434 -6.4679"/><ellipse cx="185.13" cy="256.24" rx="1.5047" ry="1.4787"/><ellipse cx="191.09" cy="256.09" rx="1.5047" ry="1.4787"/></g></g><g fill="#fff" stroke="#fff" stroke-linecap="round" stroke-linejoin="round" stroke-width=".26458"><path transform="rotate(16.391)" d="m252.24 200.62a1.4009 1.5825 0 0 1 -1.3932 1.5825 1.4009 1.5825 0 0 1 -1.4085 -1.5651 1.4009 1.5825 0 0 1 1.3777 -1.5997 1.4009 1.5825 0 0 1 1.4236 1.5475"/><path transform="matrix(-.95936 .28219 .28219 .95936 0 0)" d="m-108.98 306.71a1.4009 1.5825 0 0 1 -1.3932 1.5825 1.4009 1.5825 0 0 1 -1.4085 -1.5651 1.4009 1.5825 0 0 1 1.3777 -1.5997 1.4009 1.5825 0 0 1 1.4236 1.5475"/><path transform="matrix(-.95936 .28219 .28219 .95936 0 0)" d="m-108.76 313.13a1.4009 1.5825 0 0 1 -1.3932 1.5825 1.4009 1.5825 0 0 1 -1.4085 -1.5651 1.4009 1.5825 0 0 1 1.3777 -1.5997 1.4009 1.5825 0 0 1 1.4236 1.5475"/><path transform="matrix(-.95936 .28219 .28219 .95936 0 0)" d="m-111.11 309.93a1.4009 1.5825 0 0 1 -1.3932 1.5825 1.4009 1.5825 0 0 1 -1.4085 -1.5651 1.4009 1.5825 0 0 1 1.3777 -1.5997 1.4009 1.5825 0 0 1 1.4236 1.5475"/><path transform="rotate(16.391)" d="m252.92 207.5a1.4009 1.5825 0 0 1 -1.3932 1.5825 1.4009 1.5825 0 0 1 -1.4085 -1.5651 1.4009 1.5825 0 0 1 1.3777 -1.5997 1.4009 1.5825 0 0 1 1.4236 1.5475"/><path transform="rotate(16.391)" d="m250.57 204.3a1.4009 1.5825 0 0 1 -1.3932 1.5825 1.4009 1.5825 0 0 1 -1.4085 -1.5651 1.4009 1.5825 0 0 1 1.3777 -1.5997 1.4009 1.5825 0 0 1 1.4236 1.5475"/></g><g fill="none" stroke="#fff" stroke-width=".26458px"><path d="m186.48 265.97c1.9198 0.67451 3.2688 0 3.2688 0"/><path d="m185.75 268.77c2.3348 1.0896 4.6697 0.0519 4.6697 0.0519"/><path d="m185.39 271.26c3.0612 1.9716 5.6555 1e-5 5.6555 1e-5"/></g><path transform="rotate(16.391)" d="m249.86 193.72a0.50588 0.51354 0 0 1 -0.5031 0.51354 0.50588 0.51354 0 0 1 -0.50862 -0.5079 0.50588 0.51354 0 0 1 0.49751 -0.51911 0.50588 0.51354 0 0 1 0.51409 0.50219" fill="#fff" stroke="#fff" stroke-linecap="round" stroke-linejoin="round" stroke-width=".26458"/><path transform="rotate(16.391)" d="m255.63 191.9a0.50588 0.51354 0 0 1 -0.50309 0.51354 0.50588 0.51354 0 0 1 -0.50863 -0.50789 0.50588 0.51354 0 0 1 0.49751 -0.51912 0.50588 0.51354 0 0 1 0.51409 0.50219" fill="#fff" stroke="#fff" stroke-linecap="round" stroke-linejoin="round" stroke-width=".26458"/></g><g transform="matrix(-.39765 -.91754 -.91754 .39765 486.16 353.71)"><g><path d="m193.19 250.12c0.14873 0.3523-0.10713 0.32203-0.0949 0.53911 0.21005 1.8036-1.826 4.2042-2.7765 4.9081l-1.1846-0.61028c1.0878-0.84369 3.4622-1.8003 3.7132-4.2041-0.13724-0.24859-0.32624-0.0877-0.50873-0.40964-0.25171-0.44408 0.51242-1.0267 0.85161-0.22322z" color="#000000" color-rendering="auto" dominant-baseline="auto" image-rendering="auto" shape-rendering="auto" solid-color="#000000" style="font-feature-settings:normal;font-variant-alternates:normal;font-variant-caps:normal;font-variant-ligatures:normal;font-variant-numeric:normal;font-variant-position:normal;isolation:auto;mix-blend-mode:normal;shape-padding:0;text-decoration-color:#000000;text-decoration-line:none;text-decoration-style:solid;text-indent:0;text-orientation:mixed;text-transform:none;white-space:normal"/><path d="m183.22 250.13c-0.14873 0.3523 0.10713 0.32203 0.0949 0.53911-0.21005 1.8036 1.826 4.2042 2.7765 4.9081l1.1846-0.61028c-1.0878-0.84369-3.4622-1.8003-3.7132-4.2041 0.13724-0.24859 0.32624-0.0877 0.50873-0.40964 0.25171-0.44408-0.51242-1.0267-0.85161-0.22322z" color="#000000" color-rendering="auto" dominant-baseline="auto" image-rendering="auto" shape-rendering="auto" solid-color="#000000" style="font-feature-settings:normal;font-variant-alternates:normal;font-variant-caps:normal;font-variant-ligatures:normal;font-variant-numeric:normal;font-variant-position:normal;isolation:auto;mix-blend-mode:normal;shape-padding:0;text-decoration-color:#000000;text-decoration-line:none;text-decoration-style:solid;text-indent:0;text-orientation:mixed;text-transform:none;white-space:normal"/><g stroke="#fff" stroke-linecap="round" stroke-linejoin="round" stroke-width=".26458"><ellipse cx="188.27" cy="268.31" rx="5.0588" ry="6.5894"/><ellipse cx="188.17" cy="258.96" rx="4.1638" ry="4.06"/><path transform="rotate(266.08)" d="m-271.43 170.42a7.9903 8.7167 0 0 1 -6.9834 8.6472 7.9903 8.7167 0 0 1 -8.7434 -6.4679"/><path transform="matrix(.068332 -.99766 -.99766 -.068332 0 0)" d="m-245.69-205.34a7.9903 8.7167 0 0 1 -6.9834 8.6472 7.9903 8.7167 0 0 1 -8.7434 -6.4679"/><ellipse cx="185.13" cy="256.24" rx="1.5047" ry="1.4787"/><ellipse cx="191.09" cy="256.09" rx="1.5047" ry="1.4787"/></g></g><g fill="#fff" stroke="#fff" stroke-linecap="round" stroke-linejoin="round" stroke-width=".26458"><path transform="rotate(16.391)" d="m252.24 200.62a1.4009 1.5825 0 0 1 -1.3932 1.5825 1.4009 1.5825 0 0 1 -1.4085 -1.5651 1.4009 1.5825 0 0 1 1.3777 -1.5997 1.4009 1.5825 0 0 1 1.4236 1.5475"/><path transform="matrix(-.95936 .28219 .28219 .95936 0 0)" d="m-108.98 306.71a1.4009 1.5825 0 0 1 -1.3932 1.5825 1.4009 1.5825 0 0 1 -1.4085 -1.5651 1.4009 1.5825 0 0 1 1.3777 -1.5997 1.4009 1.5825 0 0 1 1.4236 1.5475"/><path transform="matrix(-.95936 .28219 .28219 .95936 0 0)" d="m-108.76 313.13a1.4009 1.5825 0 0 1 -1.3932 1.5825 1.4009 1.5825 0 0 1 -1.4085 -1.5651 1.4009 1.5825 0 0 1 1.3777 -1.5997 1.4009 1.5825 0 0 1 1.4236 1.5475"/><path transform="matrix(-.95936 .28219 .28219 .95936 0 0)" d="m-111.11 309.93a1.4009 1.5825 0 0 1 -1.3932 1.5825 1.4009 1.5825 0 0 1 -1.4085 -1.5651 1.4009 1.5825 0 0 1 1.3777 -1.5997 1.4009 1.5825 0 0 1 1.4236 1.5475"/><path transform="rotate(16.391)" d="m252.92 207.5a1.4009 1.5825 0 0 1 -1.3932 1.5825 1.4009 1.5825 0 0 1 -1.4085 -1.5651 1.4009 1.5825 0 0 1 1.3777 -1.5997 1.4009 1.5825 0 0 1 1.4236 1.5475"/><path transform="rotate(16.391)" d="m250.57 204.3a1.4009 1.5825 0 0 1 -1.3932 1.5825 1.4009 1.5825 0 0 1 -1.4085 -1.5651 1.4009 1.5825 0 0 1 1.3777 -1.5997 1.4009 1.5825 0 0 1 1.4236 1.5475"/></g><g fill="none" stroke="#fff" stroke-width=".26458px"><path d="m186.48 265.97c1.9198 0.67451 3.2688 0 3.2688 0"/><path d="m185.75 268.77c2.3348 1.0896 4.6697 0.0519 4.6697 0.0519"/><path d="m185.39 271.26c3.0612 1.9716 5.6555 1e-5 5.6555 1e-5"/></g><path transform="rotate(16.391)" d="m249.86 193.72a0.50588 0.51354 0 0 1 -0.5031 0.51354 0.50588 0.51354 0 0 1 -0.50862 -0.5079 0.50588 0.51354 0 0 1 0.49751 -0.51911 0.50588 0.51354 0 0 1 0.51409 0.50219" fill="#fff" stroke="#fff" stroke-linecap="round" stroke-linejoin="round" stroke-width=".26458"/><path transform="rotate(16.391)" d="m255.63 191.9a0.50588 0.51354 0 0 1 -0.50309 0.51354 0.50588 0.51354 0 0 1 -0.50863 -0.50789 0.50588 0.51354 0 0 1 0.49751 -0.51912 0.50588 0.51354 0 0 1 0.51409 0.50219" fill="#fff" stroke="#fff" stroke-linecap="round" stroke-linejoin="round" stroke-width=".26458"/></g><path d="m124.83 296.94c-3.661-0.12271-3.4771-1.9879-5.9578-2.2404 1.7312-1.2036 4.6462-0.21724 4.2432-0.61746-1.8637-1.8504-1.6032-5.5641-1.6032-5.5641s2.4245 3.9558 4.7533 4.7533c0 0-2.2969-4.5619-0.79754-5.9337 0.47852 2.4245 2.5202 3.4134 3.222 5.838 0 0 0-4.7533 1.2761-6.3803-0.41472 2.9668 0.70183 6.3165 0.70183 6.3165s2.0417-3.7644 5.9656-5.3275c-2.6797 3.3496-3.7006 6.6355-3.7006 6.6355s3.2539-1.0208 7.2416-4.4024c-1.2761 2.265-2.0417 3.6368-4.53 5.4232 2.0736-0.47852 5.7741 0.22331 5.7741 0.22331l-4.6576 1.0528 1.627 0.54232z"/><path d="m190.04 245.58c-14.389 4.2565-10.283-13.674-10.283-13.674s4.0682-0.18834 7.9103 1.0924c-0.76278 0.53677-1.4738 0.31547-1.02 2.18-0.78927 0.28251-0.75278 1.7845 0.2054 2.1141-0.0965 1.0076 1.1515 1.6874 2.2701 1.0688 0.67508 0.86637 1.4638 0.9935 2.688-0.0518 0 0 0.79103 2.2978-1.7704 7.27z"/><g fill="none" stroke="#fff" stroke-width=".26458px"><path d="m188.6 243.89c-3.8798-2.5238-5.6502-8.5884-6.8556-9.4547"/><path d="m187.81 243.32c-2.7121 0.71569-5.1982-0.48969-5.1982-0.48969"/><path d="m187.99 243.25c1.6574-1.4314 1.469-3.8045 1.469-3.8045"/><path d="m185.44 240.54c-2.1471 0.41434-4.2942-0.64036-4.2942-0.64036"/><path d="m185.47 240.54c1.6574-1.4314 1.3184-2.5991 1.3184-2.5991"/><path d="m183.71 237.6c-1.3561 0.26367-2.5991-0.56502-2.5991-0.56502"/><path d="m183.7 237.48c1.356-1.5067 1.0924-2.8628 1.0924-2.8628"/></g><g transform="rotate(66.647 123.44 188.01)"><path d="m190.04 245.58c-14.389 4.2565-10.283-13.674-10.283-13.674s4.0682-0.18834 7.9103 1.0924c-0.76278 0.53677-1.4738 0.31547-1.02 2.18-0.78927 0.28251-0.75278 1.7845 0.2054 2.1141-0.0965 1.0076 1.1515 1.6874 2.2701 1.0688 0.67508 0.86637 1.4638 0.9935 2.688-0.0518 0 0 0.79103 2.2978-1.7704 7.27z"/><g fill="none" stroke="#fff" stroke-width=".26458px"><path d="m188.6 243.89c-3.8798-2.5238-5.6502-8.5884-6.8556-9.4547"/><path d="m187.81 243.32c-2.7121 0.71569-5.1982-0.48969-5.1982-0.48969"/><path d="m187.99 243.25c1.6574-1.4314 1.469-3.8045 1.469-3.8045"/><path d="m185.44 240.54c-2.1471 0.41434-4.2942-0.64036-4.2942-0.64036"/><path d="m185.47 240.54c1.6574-1.4314 1.3184-2.5991 1.3184-2.5991"/><path d="m183.71 237.6c-1.3561 0.26367-2.5991-0.56502-2.5991-0.56502"/><path d="m183.7 237.48c1.356-1.5067 1.0924-2.8628 1.0924-2.8628"/></g></g><g transform="rotate(154.34 186.84 262.46)"><path d="m190.04 245.58c-14.389 4.2565-10.283-13.674-10.283-13.674s4.0682-0.18834 7.9103 1.0924c-0.76278 0.53677-1.4738 0.31547-1.02 2.18-0.78927 0.28251-0.75278 1.7845 0.2054 2.1141-0.0965 1.0076 1.1515 1.6874 2.2701 1.0688 0.67508 0.86637 1.4638 0.9935 2.688-0.0518 0 0 0.79103 2.2978-1.7704 7.27z"/><g fill="none" stroke="#fff" stroke-width=".26458px"><path d="m188.6 243.89c-3.8798-2.5238-5.6502-8.5884-6.8556-9.4547"/><path d="m187.81 243.32c-2.7121 0.71569-5.1982-0.48969-5.1982-0.48969"/><path d="m187.99 243.25c1.6574-1.4314 1.469-3.8045 1.469-3.8045"/><path d="m185.44 240.54c-2.1471 0.41434-4.2942-0.64036-4.2942-0.64036"/><path d="m185.47 240.54c1.6574-1.4314 1.3184-2.5991 1.3184-2.5991"/><path d="m183.71 237.6c-1.3561 0.26367-2.5991-0.56502-2.5991-0.56502"/><path d="m183.7 237.48c1.356-1.5067 1.0924-2.8628 1.0924-2.8628"/></g></g><path d="m35.228 221.75c17.779-13.259 20.025 26.672 71.32 28.149 9.5206 0.27409-0.36522 44.289 35.978 36.008 40.909-9.3214 18.651-56.103 52.65-49.099 6.5055 1.3401-10.874 39.555 35.654 54.467" fill="none" stroke="#000" stroke-dasharray="0.79374999, 4.76249994" stroke-linecap="round" stroke-linejoin="round" stroke-width=".79375"/><g><path d="m31.359 225.12c-2.8251-0.26367-7.3843 0.89479-4.9022 4.0761-3.0983-0.37762-2.0937 1.2936-2.3487 2.1618-2.3668-1.6338-2.77 1.9723-2.77 1.9723-0.72066 0.53851-9.1371 3.2286-7.7891 4.1659 1.348 0.9373-0.29899-1.2477 7.9474-3.946 0 0 0.46225 0.95307 0.78831 1.079-3.6298 6.0867-6.4351 6.1759-4.9087 6.8108 1.1348 0.47202 3.889-5.3685 5.2153-6.6461 0.37006-0.35646 4.0743-0.62059 2.1194-2.9085 2.5058 0.61603 2.3135-2.204 2.3135-2.204 3.9175 3.9928 4.3348-4.5613 4.3348-4.5613z"/><g shape-rendering="auto"><path d="m17.257 226.51c0.06096 0.77308 2.4765 0.5986 3.3262 0.72875 1.4561 0.87053 2.8861 2.6436 3.2266 2.3223s-1.9282-1.2887-3.1621-2.5884c-1.1299-0.15632-3.4516-1.2357-3.3906-0.46265z" color="#000000" color-rendering="auto" dominant-baseline="auto" image-rendering="auto" solid-color="#000000" style="font-feature-settings:normal;font-variant-alternates:normal;font-variant-caps:normal;font-variant-ligatures:normal;font-variant-numeric:normal;font-variant-position:normal;isolation:auto;mix-blend-mode:normal;shape-padding:0;text-decoration-color:#000000;text-decoration-line:none;text-decoration-style:solid;text-indent:0;text-orientation:mixed;text-transform:none;white-space:normal"/><path d="m16.157 231.85c0.35858 0.50523 0.86937 0.18194 2.0464-0.99743 2.4382-0.79613 3.9872-0.0648 4.3277-0.38606 0.3405-0.3213-2.1366-0.33636-4.4419 9.1e-4 -2.0228 0.55797-2.2909 0.87736-1.9323 1.3826z" color="#000000" color-rendering="auto" dominant-baseline="auto" image-rendering="auto" solid-color="#000000" style="font-feature-settings:normal;font-variant-alternates:normal;font-variant-caps:normal;font-variant-ligatures:normal;font-variant-numeric:normal;font-variant-position:normal;isolation:auto;mix-blend-mode:normal;shape-padding:0;text-decoration-color:#000000;text-decoration-line:none;text-decoration-style:solid;text-indent:0;text-orientation:mixed;text-transform:none;white-space:normal"/><path d="m24.326 221.43c-0.71285 0.14808-1.0193 2.1617-0.73527 3.293 1.1287 1.2574 0.92663 3.7988 1.2671 3.4775s-0.11216-1.9192-0.86986-3.814c0.42919-1.2818 1.0508-3.1046 0.338-2.9565z" color="#000000" color-rendering="auto" dominant-baseline="auto" image-rendering="auto" solid-color="#000000" style="font-feature-settings:normal;font-variant-alternates:normal;font-variant-caps:normal;font-variant-ligatures:normal;font-variant-numeric:normal;font-variant-position:normal;isolation:auto;mix-blend-mode:normal;shape-padding:0;text-decoration-color:#000000;text-decoration-line:none;text-decoration-style:solid;text-indent:0;text-orientation:mixed;text-transform:none;white-space:normal"/><path d="m29.413 238.71c-0.76899-0.10013-0.47211-2.5037-0.55896-3.3589-0.79549-1.4984-2.4936-3.0165-2.1555-3.3403 0.33817-0.32376 1.1892 1.9912 2.4245 3.2894 0.09876 1.1364 1.0589 3.5099 0.28993 3.4097z" color="#000000" color-rendering="auto" dominant-baseline="auto" image-rendering="auto" solid-color="#000000" style="font-feature-settings:normal;font-variant-alternates:normal;font-variant-caps:normal;font-variant-ligatures:normal;font-variant-numeric:normal;font-variant-position:normal;isolation:auto;mix-blend-mode:normal;shape-padding:0;text-decoration-color:#000000;text-decoration-line:none;text-decoration-style:solid;text-indent:0;text-orientation:mixed;text-transform:none;white-space:normal"/><path d="m24.018 239.53c-0.48638-0.38376-0.13757-0.87748 1.1-1.9932 0.91888-2.3946 0.26713-3.9788 0.60526-4.3026 0.33817-0.32375 0.22746 2.1509-0.2264 4.4361-0.65994 1.9918-0.99252 2.2434-1.4789 1.8596z" color="#000000" color-rendering="auto" dominant-baseline="auto" image-rendering="auto" solid-color="#000000" style="font-feature-settings:normal;font-variant-alternates:normal;font-variant-caps:normal;font-variant-ligatures:normal;font-variant-numeric:normal;font-variant-position:normal;isolation:auto;mix-blend-mode:normal;shape-padding:0;text-decoration-color:#000000;text-decoration-line:none;text-decoration-style:solid;text-indent:0;text-orientation:mixed;text-transform:none;white-space:normal"/><path d="m34.846 231.9c-0.18408 0.70441-2.2106 0.90822-3.3261 0.56715-1.1985-1.1911-3.7469-1.1183-3.4087-1.442 0.33817-0.32376 1.911 0.20944 3.765 1.0624 1.302-0.36356 3.1539-0.89189 2.9699-0.18747z" color="#000000" color-rendering="auto" dominant-baseline="auto" image-rendering="auto" solid-color="#000000" style="font-feature-settings:normal;font-variant-alternates:normal;font-variant-caps:normal;font-variant-ligatures:normal;font-variant-numeric:normal;font-variant-position:normal;isolation:auto;mix-blend-mode:normal;shape-padding:0;text-decoration-color:#000000;text-decoration-line:none;text-decoration-style:solid;text-indent:0;text-orientation:mixed;text-transform:none;white-space:normal"/></g><path d="m23.078 234.01a0.68773 0.70818 0 0 1 0.72148 -0.63571 0.68773 0.70818 0 0 1 0.65046 0.71235 0.68773 0.70818 0 0 1 -0.66057 0.70242 0.68773 0.70818 0 0 1 -0.71232 -0.64657l0.68517-0.0611z" fill="#fff" stroke="#000" stroke-linecap="round" stroke-linejoin="round" stroke-width=".26458"/><path d="m21.167 232.2a0.68773 0.70818 0 0 1 0.72148 -0.63572 0.68773 0.70818 0 0 1 0.65046 0.71236 0.68773 0.70818 0 0 1 -0.66057 0.70242 0.68773 0.70818 0 0 1 -0.71232 -0.64658l0.68517-0.061z" fill="#fff" stroke="#000" stroke-linecap="round" stroke-linejoin="round" stroke-width=".26458"/></g><g transform="rotate(82.354 106.65 334.96)"><path d="m31.359 225.12c-2.8251-0.26367-7.3843 0.89479-4.9022 4.0761-3.0983-0.37762-2.0937 1.2936-2.3487 2.1618-2.3668-1.6338-2.77 1.9723-2.77 1.9723-0.72066 0.53851-9.1371 3.2286-7.7891 4.1659 1.348 0.9373-0.29899-1.2477 7.9474-3.946 0 0 0.46225 0.95307 0.78831 1.079-3.6298 6.0867-6.4351 6.1759-4.9087 6.8108 1.1348 0.47202 3.889-5.3685 5.2153-6.6461 0.37006-0.35646 4.0743-0.62059 2.1194-2.9085 2.5058 0.61603 2.3135-2.204 2.3135-2.204 3.9175 3.9928 4.3348-4.5613 4.3348-4.5613z"/><g shape-rendering="auto"><path d="m17.257 226.51c0.06096 0.77308 2.4765 0.5986 3.3262 0.72875 1.4561 0.87053 2.8861 2.6436 3.2266 2.3223s-1.9282-1.2887-3.1621-2.5884c-1.1299-0.15632-3.4516-1.2357-3.3906-0.46265z" color="#000000" color-rendering="auto" dominant-baseline="auto" image-rendering="auto" solid-color="#000000" style="font-feature-settings:normal;font-variant-alternates:normal;font-variant-caps:normal;font-variant-ligatures:normal;font-variant-numeric:normal;font-variant-position:normal;isolation:auto;mix-blend-mode:normal;shape-padding:0;text-decoration-color:#000000;text-decoration-line:none;text-decoration-style:solid;text-indent:0;text-orientation:mixed;text-transform:none;white-space:normal"/><path d="m16.157 231.85c0.35858 0.50523 0.86937 0.18194 2.0464-0.99743 2.4382-0.79613 3.9872-0.0648 4.3277-0.38606 0.3405-0.3213-2.1366-0.33636-4.4419 9.1e-4 -2.0228 0.55797-2.2909 0.87736-1.9323 1.3826z" color="#000000" color-rendering="auto" dominant-baseline="auto" image-rendering="auto" solid-color="#000000" style="font-feature-settings:normal;font-variant-alternates:normal;font-variant-caps:normal;font-variant-ligatures:normal;font-variant-numeric:normal;font-variant-position:normal;isolation:auto;mix-blend-mode:normal;shape-padding:0;text-decoration-color:#000000;text-decoration-line:none;text-decoration-style:solid;text-indent:0;text-orientation:mixed;text-transform:none;white-space:normal"/><path d="m24.326 221.43c-0.71285 0.14808-1.0193 2.1617-0.73527 3.293 1.1287 1.2574 0.92663 3.7988 1.2671 3.4775s-0.11216-1.9192-0.86986-3.814c0.42919-1.2818 1.0508-3.1046 0.338-2.9565z" color="#000000" color-rendering="auto" dominant-baseline="auto" image-rendering="auto" solid-color="#000000" style="font-feature-settings:normal;font-variant-alternates:normal;font-variant-caps:normal;font-variant-ligatures:normal;font-variant-numeric:normal;font-variant-position:normal;isolation:auto;mix-blend-mode:normal;shape-padding:0;text-decoration-color:#000000;text-decoration-line:none;text-decoration-style:solid;text-indent:0;text-orientation:mixed;text-transform:none;white-space:normal"/><path d="m29.413 238.71c-0.76899-0.10013-0.47211-2.5037-0.55896-3.3589-0.79549-1.4984-2.4936-3.0165-2.1555-3.3403 0.33817-0.32376 1.1892 1.9912 2.4245 3.2894 0.09876 1.1364 1.0589 3.5099 0.28993 3.4097z" color="#000000" color-rendering="auto" dominant-baseline="auto" image-rendering="auto" solid-color="#000000" style="font-feature-settings:normal;font-variant-alternates:normal;font-variant-caps:normal;font-variant-ligatures:normal;font-variant-numeric:normal;font-variant-position:normal;isolation:auto;mix-blend-mode:normal;shape-padding:0;text-decoration-color:#000000;text-decoration-line:none;text-decoration-style:solid;text-indent:0;text-orientation:mixed;text-transform:none;white-space:normal"/><path d="m24.018 239.53c-0.48638-0.38376-0.13757-0.87748 1.1-1.9932 0.91888-2.3946 0.26713-3.9788 0.60526-4.3026 0.33817-0.32375 0.22746 2.1509-0.2264 4.4361-0.65994 1.9918-0.99252 2.2434-1.4789 1.8596z" color="#000000" color-rendering="auto" dominant-baseline="auto" image-rendering="auto" solid-color="#000000" style="font-feature-settings:normal;font-variant-alternates:normal;font-variant-caps:normal;font-variant-ligatures:normal;font-variant-numeric:normal;font-variant-position:normal;isolation:auto;mix-blend-mode:normal;shape-padding:0;text-decoration-color:#000000;text-decoration-line:none;text-decoration-style:solid;text-indent:0;text-orientation:mixed;text-transform:none;white-space:normal"/><path d="m34.846 231.9c-0.18408 0.70441-2.2106 0.90822-3.3261 0.56715-1.1985-1.1911-3.7469-1.1183-3.4087-1.442 0.33817-0.32376 1.911 0.20944 3.765 1.0624 1.302-0.36356 3.1539-0.89189 2.9699-0.18747z" color="#000000" color-rendering="auto" dominant-baseline="auto" image-rendering="auto" solid-color="#000000" style="font-feature-settings:normal;font-variant-alternates:normal;font-variant-caps:normal;font-variant-ligatures:normal;font-variant-numeric:normal;font-variant-position:normal;isolation:auto;mix-blend-mode:normal;shape-padding:0;text-decoration-color:#000000;text-decoration-line:none;text-decoration-style:solid;text-indent:0;text-orientation:mixed;text-transform:none;white-space:normal"/></g><path d="m23.078 234.01a0.68773 0.70818 0 0 1 0.72148 -0.63571 0.68773 0.70818 0 0 1 0.65046 0.71235 0.68773 0.70818 0 0 1 -0.66057 0.70242 0.68773 0.70818 0 0 1 -0.71232 -0.64657l0.68517-0.0611z" fill="#fff" stroke="#000" stroke-linecap="round" stroke-linejoin="round" stroke-width=".26458"/><path d="m21.167 232.2a0.68773 0.70818 0 0 1 0.72148 -0.63572 0.68773 0.70818 0 0 1 0.65046 0.71236 0.68773 0.70818 0 0 1 -0.66057 0.70242 0.68773 0.70818 0 0 1 -0.71232 -0.64658l0.68517-0.061z" fill="#fff" stroke="#000" stroke-linecap="round" stroke-linejoin="round" stroke-width=".26458"/></g><g transform="rotate(18.286 -38.44 936.21)"><path d="m31.359 225.12c-2.8251-0.26367-7.3843 0.89479-4.9022 4.0761-3.0983-0.37762-2.0937 1.2936-2.3487 2.1618-2.3668-1.6338-2.77 1.9723-2.77 1.9723-0.72066 0.53851-9.1371 3.2286-7.7891 4.1659 1.348 0.9373-0.29899-1.2477 7.9474-3.946 0 0 0.46225 0.95307 0.78831 1.079-3.6298 6.0867-6.4351 6.1759-4.9087 6.8108 1.1348 0.47202 3.889-5.3685 5.2153-6.6461 0.37006-0.35646 4.0743-0.62059 2.1194-2.9085 2.5058 0.61603 2.3135-2.204 2.3135-2.204 3.9175 3.9928 4.3348-4.5613 4.3348-4.5613z"/><g shape-rendering="auto"><path d="m17.257 226.51c0.06096 0.77308 2.4765 0.5986 3.3262 0.72875 1.4561 0.87053 2.8861 2.6436 3.2266 2.3223s-1.9282-1.2887-3.1621-2.5884c-1.1299-0.15632-3.4516-1.2357-3.3906-0.46265z" color="#000000" color-rendering="auto" dominant-baseline="auto" image-rendering="auto" solid-color="#000000" style="font-feature-settings:normal;font-variant-alternates:normal;font-variant-caps:normal;font-variant-ligatures:normal;font-variant-numeric:normal;font-variant-position:normal;isolation:auto;mix-blend-mode:normal;shape-padding:0;text-decoration-color:#000000;text-decoration-line:none;text-decoration-style:solid;text-indent:0;text-orientation:mixed;text-transform:none;white-space:normal"/><path d="m16.157 231.85c0.35858 0.50523 0.86937 0.18194 2.0464-0.99743 2.4382-0.79613 3.9872-0.0648 4.3277-0.38606 0.3405-0.3213-2.1366-0.33636-4.4419 9.1e-4 -2.0228 0.55797-2.2909 0.87736-1.9323 1.3826z" color="#000000" color-rendering="auto" dominant-baseline="auto" image-rendering="auto" solid-color="#000000" style="font-feature-settings:normal;font-variant-alternates:normal;font-variant-caps:normal;font-variant-ligatures:normal;font-variant-numeric:normal;font-variant-position:normal;isolation:auto;mix-blend-mode:normal;shape-padding:0;text-decoration-color:#000000;text-decoration-line:none;text-decoration-style:solid;text-indent:0;text-orientation:mixed;text-transform:none;white-space:normal"/><path d="m24.326 221.43c-0.71285 0.14808-1.0193 2.1617-0.73527 3.293 1.1287 1.2574 0.92663 3.7988 1.2671 3.4775s-0.11216-1.9192-0.86986-3.814c0.42919-1.2818 1.0508-3.1046 0.338-2.9565z" color="#000000" color-rendering="auto" dominant-baseline="auto" image-rendering="auto" solid-color="#000000" style="font-feature-settings:normal;font-variant-alternates:normal;font-variant-caps:normal;font-variant-ligatures:normal;font-variant-numeric:normal;font-variant-position:normal;isolation:auto;mix-blend-mode:normal;shape-padding:0;text-decoration-color:#000000;text-decoration-line:none;text-decoration-style:solid;text-indent:0;text-orientation:mixed;text-transform:none;white-space:normal"/><path d="m29.413 238.71c-0.76899-0.10013-0.47211-2.5037-0.55896-3.3589-0.79549-1.4984-2.4936-3.0165-2.1555-3.3403 0.33817-0.32376 1.1892 1.9912 2.4245 3.2894 0.09876 1.1364 1.0589 3.5099 0.28993 3.4097z" color="#000000" color-rendering="auto" dominant-baseline="auto" image-rendering="auto" solid-color="#000000" style="font-feature-settings:normal;font-variant-alternates:normal;font-variant-caps:normal;font-variant-ligatures:normal;font-variant-numeric:normal;font-variant-position:normal;isolation:auto;mix-blend-mode:normal;shape-padding:0;text-decoration-color:#000000;text-decoration-line:none;text-decoration-style:solid;text-indent:0;text-orientation:mixed;text-transform:none;white-space:normal"/><path d="m24.018 239.53c-0.48638-0.38376-0.13757-0.87748 1.1-1.9932 0.91888-2.3946 0.26713-3.9788 0.60526-4.3026 0.33817-0.32375 0.22746 2.1509-0.2264 4.4361-0.65994 1.9918-0.99252 2.2434-1.4789 1.8596z" color="#000000" color-rendering="auto" dominant-baseline="auto" image-rendering="auto" solid-color="#000000" style="font-feature-settings:normal;font-variant-alternates:normal;font-variant-caps:normal;font-variant-ligatures:normal;font-variant-numeric:normal;font-variant-position:normal;isolation:auto;mix-blend-mode:normal;shape-padding:0;text-decoration-color:#000000;text-decoration-line:none;text-decoration-style:solid;text-indent:0;text-orientation:mixed;text-transform:none;white-space:normal"/><path d="m34.846 231.9c-0.18408 0.70441-2.2106 0.90822-3.3261 0.56715-1.1985-1.1911-3.7469-1.1183-3.4087-1.442 0.33817-0.32376 1.911 0.20944 3.765 1.0624 1.302-0.36356 3.1539-0.89189 2.9699-0.18747z" color="#000000" color-rendering="auto" dominant-baseline="auto" image-rendering="auto" solid-color="#000000" style="font-feature-settings:normal;font-variant-alternates:normal;font-variant-caps:normal;font-variant-ligatures:normal;font-variant-numeric:normal;font-variant-position:normal;isolation:auto;mix-blend-mode:normal;shape-padding:0;text-decoration-color:#000000;text-decoration-line:none;text-decoration-style:solid;text-indent:0;text-orientation:mixed;text-transform:none;white-space:normal"/></g><path d="m23.078 234.01a0.68773 0.70818 0 0 1 0.72148 -0.63571 0.68773 0.70818 0 0 1 0.65046 0.71235 0.68773 0.70818 0 0 1 -0.66057 0.70242 0.68773 0.70818 0 0 1 -0.71232 -0.64657l0.68517-0.0611z" fill="#fff" stroke="#000" stroke-linecap="round" stroke-linejoin="round" stroke-width=".26458"/><path d="m21.167 232.2a0.68773 0.70818 0 0 1 0.72148 -0.63572 0.68773 0.70818 0 0 1 0.65046 0.71236 0.68773 0.70818 0 0 1 -0.66057 0.70242 0.68773 0.70818 0 0 1 -0.71232 -0.64658l0.68517-0.061z" fill="#fff" stroke="#000" stroke-linecap="round" stroke-linejoin="round" stroke-width=".26458"/></g><g transform="rotate(114.34 48.929 285.54)"><path d="m31.359 225.12c-2.8251-0.26367-7.3843 0.89479-4.9022 4.0761-3.0983-0.37762-2.0937 1.2936-2.3487 2.1618-2.3668-1.6338-2.77 1.9723-2.77 1.9723-0.72066 0.53851-9.1371 3.2286-7.7891 4.1659 1.348 0.9373-0.29899-1.2477 7.9474-3.946 0 0 0.46225 0.95307 0.78831 1.079-3.6298 6.0867-6.4351 6.1759-4.9087 6.8108 1.1348 0.47202 3.889-5.3685 5.2153-6.6461 0.37006-0.35646 4.0743-0.62059 2.1194-2.9085 2.5058 0.61603 2.3135-2.204 2.3135-2.204 3.9175 3.9928 4.3348-4.5613 4.3348-4.5613z"/><g shape-rendering="auto"><path d="m17.257 226.51c0.06096 0.77308 2.4765 0.5986 3.3262 0.72875 1.4561 0.87053 2.8861 2.6436 3.2266 2.3223s-1.9282-1.2887-3.1621-2.5884c-1.1299-0.15632-3.4516-1.2357-3.3906-0.46265z" color="#000000" color-rendering="auto" dominant-baseline="auto" image-rendering="auto" solid-color="#000000" style="font-feature-settings:normal;font-variant-alternates:normal;font-variant-caps:normal;font-variant-ligatures:normal;font-variant-numeric:normal;font-variant-position:normal;isolation:auto;mix-blend-mode:normal;shape-padding:0;text-decoration-color:#000000;text-decoration-line:none;text-decoration-style:solid;text-indent:0;text-orientation:mixed;text-transform:none;white-space:normal"/><path d="m16.157 231.85c0.35858 0.50523 0.86937 0.18194 2.0464-0.99743 2.4382-0.79613 3.9872-0.0648 4.3277-0.38606 0.3405-0.3213-2.1366-0.33636-4.4419 9.1e-4 -2.0228 0.55797-2.2909 0.87736-1.9323 1.3826z" color="#000000" color-rendering="auto" dominant-baseline="auto" image-rendering="auto" solid-color="#000000" style="font-feature-settings:normal;font-variant-alternates:normal;font-variant-caps:normal;font-variant-ligatures:normal;font-variant-numeric:normal;font-variant-position:normal;isolation:auto;mix-blend-mode:normal;shape-padding:0;text-decoration-color:#000000;text-decoration-line:none;text-decoration-style:solid;text-indent:0;text-orientation:mixed;text-transform:none;white-space:normal"/><path d="m24.326 221.43c-0.71285 0.14808-1.0193 2.1617-0.73527 3.293 1.1287 1.2574 0.92663 3.7988 1.2671 3.4775s-0.11216-1.9192-0.86986-3.814c0.42919-1.2818 1.0508-3.1046 0.338-2.9565z" color="#000000" color-rendering="auto" dominant-baseline="auto" image-rendering="auto" solid-color="#000000" style="font-feature-settings:normal;font-variant-alternates:normal;font-variant-caps:normal;font-variant-ligatures:normal;font-variant-numeric:normal;font-variant-position:normal;isolation:auto;mix-blend-mode:normal;shape-padding:0;text-decoration-color:#000000;text-decoration-line:none;text-decoration-style:solid;text-indent:0;text-orientation:mixed;text-transform:none;white-space:normal"/><path d="m29.413 238.71c-0.76899-0.10013-0.47211-2.5037-0.55896-3.3589-0.79549-1.4984-2.4936-3.0165-2.1555-3.3403 0.33817-0.32376 1.1892 1.9912 2.4245 3.2894 0.09876 1.1364 1.0589 3.5099 0.28993 3.4097z" color="#000000" color-rendering="auto" dominant-baseline="auto" image-rendering="auto" solid-color="#000000" style="font-feature-settings:normal;font-variant-alternates:normal;font-variant-caps:normal;font-variant-ligatures:normal;font-variant-numeric:normal;font-variant-position:normal;isolation:auto;mix-blend-mode:normal;shape-padding:0;text-decoration-color:#000000;text-decoration-line:none;text-decoration-style:solid;text-indent:0;text-orientation:mixed;text-transform:none;white-space:normal"/><path d="m24.018 239.53c-0.48638-0.38376-0.13757-0.87748 1.1-1.9932 0.91888-2.3946 0.26713-3.9788 0.60526-4.3026 0.33817-0.32375 0.22746 2.1509-0.2264 4.4361-0.65994 1.9918-0.99252 2.2434-1.4789 1.8596z" color="#000000" color-rendering="auto" dominant-baseline="auto" image-rendering="auto" solid-color="#000000" style="font-feature-settings:normal;font-variant-alternates:normal;font-variant-caps:normal;font-variant-ligatures:normal;font-variant-numeric:normal;font-variant-position:normal;isolation:auto;mix-blend-mode:normal;shape-padding:0;text-decoration-color:#000000;text-decoration-line:none;text-decoration-style:solid;text-indent:0;text-orientation:mixed;text-transform:none;white-space:normal"/><path d="m34.846 231.9c-0.18408 0.70441-2.2106 0.90822-3.3261 0.56715-1.1985-1.1911-3.7469-1.1183-3.4087-1.442 0.33817-0.32376 1.911 0.20944 3.765 1.0624 1.302-0.36356 3.1539-0.89189 2.9699-0.18747z" color="#000000" color-rendering="auto" dominant-baseline="auto" image-rendering="auto" solid-color="#000000" style="font-feature-settings:normal;font-variant-alternates:normal;font-variant-caps:normal;font-variant-ligatures:normal;font-variant-numeric:normal;font-variant-position:normal;isolation:auto;mix-blend-mode:normal;shape-padding:0;text-decoration-color:#000000;text-decoration-line:none;text-decoration-style:solid;text-indent:0;text-orientation:mixed;text-transform:none;white-space:normal"/></g><path d="m23.078 234.01a0.68773 0.70818 0 0 1 0.72148 -0.63571 0.68773 0.70818 0 0 1 0.65046 0.71235 0.68773 0.70818 0 0 1 -0.66057 0.70242 0.68773 0.70818 0 0 1 -0.71232 -0.64657l0.68517-0.0611z" fill="#fff" stroke="#000" stroke-linecap="round" stroke-linejoin="round" stroke-width=".26458"/><path d="m21.167 232.2a0.68773 0.70818 0 0 1 0.72148 -0.63572 0.68773 0.70818 0 0 1 0.65046 0.71236 0.68773 0.70818 0 0 1 -0.66057 0.70242 0.68773 0.70818 0 0 1 -0.71232 -0.64658l0.68517-0.061z" fill="#fff" stroke="#000" stroke-linecap="round" stroke-linejoin="round" stroke-width=".26458"/></g><g transform="rotate(94.153 111.41 171.23)"><path d="m190.04 245.58c-3.5973 1.0641-6.6291-0.25209-8.2677-1.3345 1.5372-1.0002 0.3038-2.0016 0.3038-2.0016s0.71257-1.1416-0.73977-1.2315c-0.3861-1.9752-1.9325-0.73215-1.9325-0.73215l0.35276-8.3738s4.0682-0.18834 7.9103 1.0924c-0.76278 0.53677-1.4738 0.31547-1.02 2.18-0.78927 0.28251-0.75278 1.7845 0.2054 2.1141-0.0965 1.0076 1.1515 1.6874 2.2701 1.0688 0.67508 0.86637 1.4638 0.9935 2.688-0.0518 0 0 0.79103 2.2978-1.7704 7.27z"/><g fill="none" stroke="#fff" stroke-width=".26458px"><path d="m188.6 243.89c-3.8798-2.5238-5.6502-8.5884-6.8556-9.4547"/><path d="m187.81 243.32c-2.7121 0.71569-5.1982-0.48969-5.1982-0.48969"/><path d="m187.99 243.25c1.6574-1.4314 1.469-3.8045 1.469-3.8045"/><path d="m185.44 240.54c-2.1471 0.41434-4.2942-0.64036-4.2942-0.64036"/><path d="m185.47 240.54c1.6574-1.4314 1.3184-2.5991 1.3184-2.5991"/><path d="m183.71 237.6c-1.3561 0.26367-2.5991-0.56502-2.5991-0.56502"/><path d="m183.7 237.48c1.356-1.5067 1.0924-2.8628 1.0924-2.8628"/></g></g><g shape-rendering="auto"><path d="m184.58 254.61c-0.51904 0.0776 0.1046 1.9506-0.13028 4.1607-0.64779-1.4323-1.2363-4.4088-1.9146-3.981s1.0308 0.62076 1.5119 4.1798c-2.8097-1.738-2.3162-3.4503-2.965-2.9138-0.64877 0.53644 1.9762 2.463 3.2423 3.4544-3.2339 4.6358-9.0711 6.9232-8.2013 7.8712s2.4164-1.9573 8.5391-7.4022c0.87857 0.91823 1.8299 4.5221 2.6652 3.9148 0.53254-0.83217-1.218-0.18616-1.9818-3.7774 2.448 1.4013 3.5506 2.8153 3.6682 1.964s-0.78173 0.55824-3.4296-2.294c1.0547-0.19861 2.8633 0.28823 2.9727-0.0422-0.3275-0.73448-0.90046-0.16745-2.1543-0.25484-0.84474 0.11621-1.2289-0.2961-0.5343-0.71416 0.2669-0.31984 1.4028-0.68507 0.93137-0.97444-0.38576-0.15059-1.0349 1.2994-1.571 0.89298 0.36374-1.4521 1.0206-1.9251 0.50594-2.0344s0.0884 0.96678-0.8835 1.9126c-0.44516-2.3878 0.24807-4.0396-0.27097-3.9621z" color="#000000" color-rendering="auto" dominant-baseline="auto" image-rendering="auto" solid-color="#000000" style="font-feature-settings:normal;font-variant-alternates:normal;font-variant-caps:normal;font-variant-ligatures:normal;font-variant-numeric:normal;font-variant-position:normal;isolation:auto;mix-blend-mode:normal;shape-padding:0;text-decoration-color:#000000;text-decoration-line:none;text-decoration-style:solid;text-indent:0;text-orientation:mixed;text-transform:none;white-space:normal"/><path d="m156.9 234.8c0.0664 0.52059 1.9524-0.0626 4.1569 0.21973-1.4459 0.61684-4.4344 1.1412-4.0212 1.8286s0.64279-1.0172 4.2113-1.4216c-1.798 2.7717-3.4993 2.2415-2.9769 2.9016 0.52236 0.66016 2.5049-1.9228 3.5233-3.1672 4.5652 3.3329 6.7265 9.2179 7.693 8.3687 0.96656-0.84921-1.9049-2.4579-7.2169-8.6963 0.93691-0.85862 4.5604-1.7322 3.9712-2.5804-0.82052-0.55031-0.21231 1.2137-3.8192 1.9001 1.4536-2.4173 2.891-3.4892 2.0424-3.6251-0.84857-0.13591 0.5413 0.79355-2.3672 3.3795-0.17588-1.0587 0.34974-2.8565 0.0217-2.973-0.74135 0.31163-0.18677 0.89665-0.30111 2.1484 0.098 0.84705-0.32246 1.2223-0.72549 0.51882-0.31402-0.27372-0.65474-1.4172-0.95418-0.95211-0.15885 0.38243 1.2768 1.0626 0.85899 1.5898-1.4439-0.39489-1.9027-1.0617-2.023-0.54958s0.96846-0.0676 1.8932 0.92443c-2.3968 0.39371-4.0334-0.33489-3.967 0.1857z" color="#000000" color-rendering="auto" dominant-baseline="auto" image-rendering="auto" solid-color="#000000" style="font-feature-settings:normal;font-variant-alternates:normal;font-variant-caps:normal;font-variant-ligatures:normal;font-variant-numeric:normal;font-variant-position:normal;isolation:auto;mix-blend-mode:normal;shape-padding:0;text-decoration-color:#000000;text-decoration-line:none;text-decoration-style:solid;text-indent:0;text-orientation:mixed;text-transform:none;white-space:normal"/><path d="m56.111 238.93c0.4661 0.24119-0.7294 1.8121-1.2214 3.9795 1.0759-1.1461 2.5948-3.7726 3.0985-3.1485 0.50368 0.62412-1.1761 0.2543-2.7816 3.4668 3.2206-0.73666 3.307-2.5165 3.7476-1.7992 0.44058 0.71733-2.6662 1.6921-4.1847 2.2211 1.5621 5.4322 6.3467 9.4834 5.2172 10.099s-1.6541-2.6332-5.6884-9.7648c-1.1282 0.585-3.1932 3.688-3.7874 2.8433-0.23501-0.95962 1.2128 0.21748 3.0963-2.9342-2.7695 0.53493-4.2699 1.5167-4.1061 0.67304s0.55936 0.78094 3.9869-1.0624c-0.93389-0.52882-2.8028-0.65265-2.7996-1.0007 0.5473-0.58921 0.90625 0.13256 2.1211 0.45511 0.76185 0.38299 1.2587 0.11698 0.73644-0.50315-0.1492-0.38893-1.1061-1.1017-0.56645-1.2232 0.41373-0.0178 0.55942 1.5641 1.1981 1.3528 0.12509-1.4917-0.34361-2.1516 0.17872-2.0887 0.52233 0.0629-0.39612 0.88633 0.21792 2.0956 1.193-2.1157 1.0708-3.903 1.537-3.6619z" color="#000000" color-rendering="auto" dominant-baseline="auto" image-rendering="auto" solid-color="#000000" style="font-feature-settings:normal;font-variant-alternates:normal;font-variant-caps:normal;font-variant-ligatures:normal;font-variant-numeric:normal;font-variant-position:normal;isolation:auto;mix-blend-mode:normal;shape-padding:0;text-decoration-color:#000000;text-decoration-line:none;text-decoration-style:solid;text-indent:0;text-orientation:mixed;text-transform:none;white-space:normal"/><path d="m13.825 226.81c-0.10629-0.51393-1.9417 0.21272-4.1615 0.10089 1.3941-0.7263 4.3334-1.4791 3.8686-2.1327-0.46483-0.65356-0.56258 1.0637-4.0894 1.7416 1.5794-2.9018 3.3164-2.5042 2.7448-3.1222-0.57163-0.61799-2.3495 2.1099-3.2691 3.429-4.8082-2.9716-7.4161-8.6728-8.3144-7.7517-0.89833 0.92109 2.0884 2.304 7.8648 8.115-0.86804 0.92818-4.4135 2.0781-3.7608 2.8784 0.86045 0.48552 0.11826-1.2264 3.6616-2.1885-1.2633 2.522-2.6138 3.7014-1.7573 3.7716 0.85651 0.0702-0.60077-0.74954 2.1-3.5516 0.25685 1.042-0.12884 2.8749 0.20716 2.9658 0.71517-0.36777 0.11721-0.90837 0.13485-2.1652-0.16292-0.83698 0.22742-1.2435 0.6834-0.57312 0.33416 0.24874 0.76189 1.3626 1.0246 0.87584 0.12894-0.39352-1.3548-0.96118-0.97881-1.519 1.47 0.28257 1.9787 0.91211 2.0593 0.39222 0.08059-0.51988-0.96038 0.14193-1.9587-0.77596 2.3594-0.57702 4.0472 0.0234 3.9409-0.4905z" color="#000000" color-rendering="auto" dominant-baseline="auto" image-rendering="auto" solid-color="#000000" style="font-feature-settings:normal;font-variant-alternates:normal;font-variant-caps:normal;font-variant-ligatures:normal;font-variant-numeric:normal;font-variant-position:normal;isolation:auto;mix-blend-mode:normal;shape-padding:0;text-decoration-color:#000000;text-decoration-line:none;text-decoration-style:solid;text-indent:0;text-orientation:mixed;text-transform:none;white-space:normal"/><path d="m132.31 226.77c-0.0664 0.52059-1.9524-0.0626-4.1569 0.21973 1.4459 0.61684 4.4344 1.1412 4.0212 1.8286s-0.64279-1.0172-4.2113-1.4216c1.798 2.7717 3.4993 2.2415 2.9769 2.9016-0.52236 0.66016-2.5049-1.9228-3.5233-3.1672-4.5652 3.3329-6.7265 9.2179-7.693 8.3687-0.96656-0.84921 1.9049-2.4579 7.2169-8.6963-0.93691-0.85862-4.5604-1.7322-3.9712-2.5804 0.82052-0.55031 0.21231 1.2137 3.8192 1.9001-1.4536-2.4173-2.891-3.4892-2.0424-3.6251 0.84857-0.13591-0.5413 0.79355 2.3672 3.3795 0.17588-1.0587-0.34974-2.8565-0.0217-2.973 0.74135 0.31163 0.18677 0.89665 0.30111 2.1484-0.098 0.84705 0.32246 1.2223 0.72549 0.51882 0.31402-0.27372 0.65474-1.4172 0.95418-0.95211 0.15885 0.38243-1.2768 1.0626-0.85899 1.5898 1.4439-0.39489 1.9027-1.0617 2.023-0.54958s-0.96846-0.0676-1.8932 0.92443c2.3968 0.39371 4.0334-0.33489 3.967 0.1857z" color="#000000" color-rendering="auto" dominant-baseline="auto" image-rendering="auto" solid-color="#000000" style="font-feature-settings:normal;font-variant-alternates:normal;font-variant-caps:normal;font-variant-ligatures:normal;font-variant-numeric:normal;font-variant-position:normal;isolation:auto;mix-blend-mode:normal;shape-padding:0;text-decoration-color:#000000;text-decoration-line:none;text-decoration-style:solid;text-indent:0;text-orientation:mixed;text-transform:none;white-space:normal"/><path d="m84.109 268.6c0.51904-0.0776-0.1046-1.9506 0.13028-4.1607 0.64779 1.4323 1.2363 4.4088 1.9146 3.981s-1.0308-0.62076-1.5119-4.1798c2.8097 1.738 2.3162 3.4503 2.965 2.9138 0.64877-0.53644-1.9762-2.463-3.2423-3.4544 3.2339-4.6358 9.0711-6.9232 8.2013-7.8712s-2.4164 1.9573-8.5391 7.4022c-0.87857-0.91823-1.8299-4.5221-2.6652-3.9148-0.53254 0.83217 1.218 0.18616 1.9818 3.7774-2.448-1.4013-3.5506-2.8153-3.6682-1.964s0.78173-0.55824 3.4296 2.294c-1.0547 0.19861-2.8633-0.28823-2.9727 0.0422 0.3275 0.73448 0.90046 0.16745 2.1543 0.25484 0.84474-0.11621 1.2289 0.2961 0.5343 0.71416-0.2669 0.31984-1.4028 0.68507-0.93137 0.97444 0.38576 0.15059 1.0349-1.2994 1.571-0.89298-0.36374 1.4521-1.0206 1.9251-0.50594 2.0344s-0.0884-0.96678 0.8835-1.9126c0.44516 2.3878-0.24807 4.0396 0.27097 3.9621z" color="#000000" color-rendering="auto" dominant-baseline="auto" image-rendering="auto" solid-color="#000000" style="font-feature-settings:normal;font-variant-alternates:normal;font-variant-caps:normal;font-variant-ligatures:normal;font-variant-numeric:normal;font-variant-position:normal;isolation:auto;mix-blend-mode:normal;shape-padding:0;text-decoration-color:#000000;text-decoration-line:none;text-decoration-style:solid;text-indent:0;text-orientation:mixed;text-transform:none;white-space:normal"/></g><g transform="rotate(-66.569 105.53 331.4)"><g><path d="m193.19 250.12c0.14873 0.3523-0.10713 0.32203-0.0949 0.53911 0.21005 1.8036-1.826 4.2042-2.7765 4.9081l-1.1846-0.61028c1.0878-0.84369 3.4622-1.8003 3.7132-4.2041-0.13724-0.24859-0.32624-0.0877-0.50873-0.40964-0.25171-0.44408 0.51242-1.0267 0.85161-0.22322z" color="#000000" color-rendering="auto" dominant-baseline="auto" image-rendering="auto" shape-rendering="auto" solid-color="#000000" style="font-feature-settings:normal;font-variant-alternates:normal;font-variant-caps:normal;font-variant-ligatures:normal;font-variant-numeric:normal;font-variant-position:normal;isolation:auto;mix-blend-mode:normal;shape-padding:0;text-decoration-color:#000000;text-decoration-line:none;text-decoration-style:solid;text-indent:0;text-orientation:mixed;text-transform:none;white-space:normal"/><path d="m183.22 250.13c-0.14873 0.3523 0.10713 0.32203 0.0949 0.53911-0.21005 1.8036 1.826 4.2042 2.7765 4.9081l1.1846-0.61028c-1.0878-0.84369-3.4622-1.8003-3.7132-4.2041 0.13724-0.24859 0.32624-0.0877 0.50873-0.40964 0.25171-0.44408-0.51242-1.0267-0.85161-0.22322z" color="#000000" color-rendering="auto" dominant-baseline="auto" image-rendering="auto" shape-rendering="auto" solid-color="#000000" style="font-feature-settings:normal;font-variant-alternates:normal;font-variant-caps:normal;font-variant-ligatures:normal;font-variant-numeric:normal;font-variant-position:normal;isolation:auto;mix-blend-mode:normal;shape-padding:0;text-decoration-color:#000000;text-decoration-line:none;text-decoration-style:solid;text-indent:0;text-orientation:mixed;text-transform:none;white-space:normal"/><g stroke="#fff" stroke-linecap="round" stroke-linejoin="round" stroke-width=".26458"><ellipse cx="188.27" cy="268.31" rx="5.0588" ry="6.5894"/><ellipse cx="188.17" cy="258.96" rx="4.1638" ry="4.06"/><path transform="rotate(266.08)" d="m-271.43 170.42a7.9903 8.7167 0 0 1 -6.9834 8.6472 7.9903 8.7167 0 0 1 -8.7434 -6.4679"/><path transform="matrix(.068332 -.99766 -.99766 -.068332 0 0)" d="m-245.69-205.34a7.9903 8.7167 0 0 1 -6.9834 8.6472 7.9903 8.7167 0 0 1 -8.7434 -6.4679"/><ellipse cx="185.13" cy="256.24" rx="1.5047" ry="1.4787"/><ellipse cx="191.09" cy="256.09" rx="1.5047" ry="1.4787"/></g></g><g fill="#fff" stroke="#fff" stroke-linecap="round" stroke-linejoin="round" stroke-width=".26458"><path transform="rotate(16.391)" d="m252.24 200.62a1.4009 1.5825 0 0 1 -1.3932 1.5825 1.4009 1.5825 0 0 1 -1.4085 -1.5651 1.4009 1.5825 0 0 1 1.3777 -1.5997 1.4009 1.5825 0 0 1 1.4236 1.5475"/><path transform="matrix(-.95936 .28219 .28219 .95936 0 0)" d="m-108.98 306.71a1.4009 1.5825 0 0 1 -1.3932 1.5825 1.4009 1.5825 0 0 1 -1.4085 -1.5651 1.4009 1.5825 0 0 1 1.3777 -1.5997 1.4009 1.5825 0 0 1 1.4236 1.5475"/><path transform="matrix(-.95936 .28219 .28219 .95936 0 0)" d="m-108.76 313.13a1.4009 1.5825 0 0 1 -1.3932 1.5825 1.4009 1.5825 0 0 1 -1.4085 -1.5651 1.4009 1.5825 0 0 1 1.3777 -1.5997 1.4009 1.5825 0 0 1 1.4236 1.5475"/><path transform="matrix(-.95936 .28219 .28219 .95936 0 0)" d="m-111.11 309.93a1.4009 1.5825 0 0 1 -1.3932 1.5825 1.4009 1.5825 0 0 1 -1.4085 -1.5651 1.4009 1.5825 0 0 1 1.3777 -1.5997 1.4009 1.5825 0 0 1 1.4236 1.5475"/><path transform="rotate(16.391)" d="m252.92 207.5a1.4009 1.5825 0 0 1 -1.3932 1.5825 1.4009 1.5825 0 0 1 -1.4085 -1.5651 1.4009 1.5825 0 0 1 1.3777 -1.5997 1.4009 1.5825 0 0 1 1.4236 1.5475"/><path transform="rotate(16.391)" d="m250.57 204.3a1.4009 1.5825 0 0 1 -1.3932 1.5825 1.4009 1.5825 0 0 1 -1.4085 -1.5651 1.4009 1.5825 0 0 1 1.3777 -1.5997 1.4009 1.5825 0 0 1 1.4236 1.5475"/></g><g fill="none" stroke="#fff" stroke-width=".26458px"><path d="m186.48 265.97c1.9198 0.67451 3.2688 0 3.2688 0"/><path d="m185.75 268.77c2.3348 1.0896 4.6697 0.0519 4.6697 0.0519"/><path d="m185.39 271.26c3.0612 1.9716 5.6555 1e-5 5.6555 1e-5"/></g><path transform="rotate(16.391)" d="m249.86 193.72a0.50588 0.51354 0 0 1 -0.5031 0.51354 0.50588 0.51354 0 0 1 -0.50862 -0.5079 0.50588 0.51354 0 0 1 0.49751 -0.51911 0.50588 0.51354 0 0 1 0.51409 0.50219" fill="#fff" stroke="#fff" stroke-linecap="round" stroke-linejoin="round" stroke-width=".26458"/><path transform="rotate(16.391)" d="m255.63 191.9a0.50588 0.51354 0 0 1 -0.50309 0.51354 0.50588 0.51354 0 0 1 -0.50863 -0.50789 0.50588 0.51354 0 0 1 0.49751 -0.51912 0.50588 0.51354 0 0 1 0.51409 0.50219" fill="#fff" stroke="#fff" stroke-linecap="round" stroke-linejoin="round" stroke-width=".26458"/></g><path d="m184.46 265.71c-0.51301-0.11065-0.59077 1.8619-1.5908 3.8467-0.10041-1.5688 0.39986-4.5614-0.38587-4.4006-0.78571 0.16078 0.74527 0.9447-0.0611 4.4444-2.0152-2.618-0.94894-4.0458-1.7453-3.773-0.7964 0.27283 0.97938 3.0021 1.8139 4.3766-4.6624 3.1956-10.931 3.2748-10.452 4.4689 0.47911 1.1941 2.9518-0.97817 10.603-3.9109 0.49777 1.1693 0.11551 4.8769 1.1115 4.6037 0.79204-0.59056-1.0738-0.60418-0.5206-4.2339 1.7956 2.1753 2.328 3.8875 2.7386 3.1326 0.4106-0.75494-0.92848 0.24631-2.3989-3.357 1.0569 0.18653 2.5772 1.2806 2.7962 1.01-0.0471-0.80282-0.78336-0.47458-1.9256-0.99903-0.83138-0.1895-1.0453-0.71091-0.24775-0.85681 0.36262-0.20504 1.5544-0.14569 1.2154-0.58287-0.30775-0.27709-1.427 0.85033-1.7851 0.28084 0.85298-1.2302 1.6345-1.4408 1.1916-1.7248-0.44288-0.28397-0.25862 0.93573-1.5019 1.4776 0.4265-2.3912 1.6583-3.6919 1.1453-3.8026z" color="#000000" color-rendering="auto" dominant-baseline="auto" image-rendering="auto" shape-rendering="auto" solid-color="#000000" style="font-feature-settings:normal;font-variant-alternates:normal;font-variant-caps:normal;font-variant-ligatures:normal;font-variant-numeric:normal;font-variant-position:normal;isolation:auto;mix-blend-mode:normal;shape-padding:0;text-decoration-color:#000000;text-decoration-line:none;text-decoration-style:solid;text-indent:0;text-orientation:mixed;text-transform:none;white-space:normal"/><path d="m207.32 259.86c0.48069-0.21062-0.61099-1.8553-0.96218-4.05 0.99977 1.2131 2.3461 3.9322 2.889 3.3419s-1.1572-0.32963-2.5522-3.639c3.1664 0.94288 3.1378 2.7246 3.6237 2.0372 0.48589-0.68744-2.5514-1.8606-4.0327-2.4864 1.9093-5.3202 6.9452-9.0542 5.8578-9.7419-1.0874-0.68769-1.8205 2.5211-6.3065 9.3775-1.0881-0.65652-2.9486-3.8863-3.5961-3.0818-0.29642 0.94247 1.2243-0.13878 2.9006 3.1278-2.7293-0.71247-4.1632-1.7889-4.0542-0.93651 0.10906 0.85243 0.60857-0.74323 3.9101 1.3174-0.96606 0.46749-2.8391 0.4705-2.8583 0.81805 0.50816 0.62329 0.91292-0.0738 2.146-0.31734 0.78497-0.33305 1.2636-0.0355 0.70245 0.5496-0.17399 0.37851-1.1749 1.028-0.64417 1.1841 0.4117 0.0445 0.65914-1.5248 1.2828-1.2727 0.0286 1.4967-0.48168 2.1249 0.0436 2.0959 0.5253-0.029-0.33811-0.91003 0.35265-2.0771 1.054 2.1883 0.81684 3.964 1.2975 3.7534z" color="#000000" color-rendering="auto" dominant-baseline="auto" image-rendering="auto" shape-rendering="auto" solid-color="#000000" style="font-feature-settings:normal;font-variant-alternates:normal;font-variant-caps:normal;font-variant-ligatures:normal;font-variant-numeric:normal;font-variant-position:normal;isolation:auto;mix-blend-mode:normal;shape-padding:0;text-decoration-color:#000000;text-decoration-line:none;text-decoration-style:solid;text-indent:0;text-orientation:mixed;text-transform:none;white-space:normal"/></g><g fill="none" stroke="#000" stroke-width=".79375"><path transform="translate(0 -217.62)" d="m13.229 279.8h15.875l7.9375-6.6146h9.2604"/><ellipse transform="translate(0 -217.62)" cx="47.005" cy="273.27" rx=".95151" ry=".93043"/><ellipse transform="translate(0 -217.62)" cx="12.482" cy="279.95" rx=".95151" ry=".93043"/><path transform="translate(0 -217.62)" d="m18.543 276.61c8.9437 0.0596 9.0033 0.0596 9.0033 0.0596l-8.8244-8.5263-0.05962-10.852"/><ellipse transform="translate(0 -217.62)" cx="17.312" cy="276.61" rx=".95151" ry=".93043"/><ellipse transform="translate(0 -217.62)" cx="18.683" cy="256.28" rx=".95151" ry=".93043"/><path transform="translate(0 -217.62)" d="m22.49 265.25 7.9375-6.6146v-6.6146h-11.906l-5.2917 5.2917"/><ellipse transform="translate(0 -217.62)" cx="24.526" cy="268.44" rx=".95151" ry=".93043"/><ellipse transform="translate(0 -217.62)" cx="21.903" cy="265.82" rx=".95151" ry=".93043"/><ellipse transform="translate(0 -217.62)" cx="46.886" cy="264.56" rx=".95151" ry=".93043"/><path transform="translate(0 -217.62)" d="m38.365 261.28 7.9375-7.9375m-21.167 14.552 7.9375-6.6146h9.2604l3.9688 2.6458"/><ellipse transform="translate(0 -217.62)" cx="47.005" cy="252.76" rx=".95151" ry=".93043"/><ellipse transform="translate(0 -217.62)" cx="12.602" cy="257.89" rx=".95151" ry=".93043"/><ellipse transform="translate(0 -217.62)" cx="27.031" cy="254.19" rx=".95151" ry=".93043"/><ellipse transform="translate(0 -217.62)" cx="21.636" cy="260.69" rx=".95151" ry=".93043"/><ellipse transform="translate(0 -217.62)" cx="27.041" cy="257.76" rx=".95151" ry=".93043"/><path transform="translate(0 -217.62)" d="m21.696 259.69v-5.5562h4.4979"/><path transform="translate(0 -217.62)" d="m21.696 257.84h4.2333"/><ellipse cx="27.181" cy="53.464" rx=".95151" ry=".93043"/><path d="m28.11 52.762 6.4546-5.5191 3.9054 0.0179 5.0577 3.2097"/><ellipse cx="44.393" cy="51.174" rx=".95151" ry=".93043"/><ellipse cx="55.042" cy="51.24" rx=".95151" ry=".93043"/><ellipse cx="52.144" cy="46.84" rx=".95151" ry=".93043"/><ellipse cx="52.197" cy="55.645" rx=".95151" ry=".93043"/><ellipse cx="29.706" cy="56.364" rx=".95151" ry=".93043"/><path d="m30.495 55.802l5.5191-4.3966"/><ellipse cx="36.535" cy="51.126" rx=".95151" ry=".93043"/><ellipse cx="36.395" cy="40.038" rx=".95151" ry=".93043"/><path d="m37.324 39.244 5.0514-5.0514v-6.1739"/><ellipse cx="42.289" cy="27.316" rx=".95151" ry=".93043"/><ellipse cx="12.635" cy="46.449" rx=".95151" ry=".93043"/><path d="m13.47 47.476c2.6192 3.087 2.5257 3.087 2.5257 3.087h-13.845"/><ellipse cx="1.2222" cy="50.565" rx=".95151" ry=".93043"/><ellipse cx="17.125" cy="54.4" rx=".95151" ry=".93043"/><path d="m16.37 54.773c-9.448 8.419-9.7286 8.6996-9.7286 8.6996v13.283"/><ellipse cx="6.6478" cy="77.412" rx=".95151" ry=".93043"/><ellipse cx="8.0509" cy="54.493" rx=".95151" ry=".93043"/><path d="m7.2029 55.334-6.6416 5.7062v9.1673"/><ellipse cx=".75449" cy="71.144" rx=".95151" ry=".93043"/><path d="m52.853 56.363c14.499 15.154 14.499 15.061 14.499 15.061h19.831l9.2609-7.6706" stroke-linejoin="round"/><ellipse cx="97.137" cy="63.401" rx=".95151" ry=".93043"/><path d="m55.88 51.72c12.919 13.231 12.919 13.283 12.919 13.283v-6.7451" stroke-linejoin="round"/><ellipse cx="68.792" cy="57.414" rx=".95151" ry=".93043"/><ellipse cx="64.122" cy="53.316" rx=".95151" ry=".93043"/><path d="m65.064 52.654c3.6838-3.4763 3.6838-3.5282 3.6838-3.5282l7.8347 7.7309" stroke-linejoin="round"/><ellipse cx="77.405" cy="57.466" rx=".95151" ry=".93043"/><ellipse cx="43.355" cy="66.344" rx=".95151" ry=".93043"/><path d="m42.485 65.727c-6.0903-5.5033-6.0169-5.5033-6.0169-5.5033l2.0545-1.8344h11.153v13.281"/><ellipse cx="49.738" cy="72.581" rx=".95151" ry=".93043"/><path d="m49.684 61.737 16.462 16.315h10.583" stroke-linejoin="round"/><ellipse cx="77.475" cy="78.01" rx=".95151" ry=".93043"/><path d="m49.823 69.005 7.1175 6.6039v1.5735"/><ellipse cx="56.929" cy="78.01" rx=".95151" ry=".93043"/><ellipse cx="36.413" cy="66.371" rx=".95151" ry=".93043"/><ellipse cx="33.79" cy="63.747" rx=".95151" ry=".93043"/><ellipse cx="39.068" cy="69.02" rx=".95151" ry=".93043"/><ellipse cx="41.593" cy="71.92" rx=".95151" ry=".93043"/><path d="m33.103 64.432c-4.0989 3.165-4.1508 3.165-4.1508 3.165l-11.726-0.10377-4.1508 2.698"/><path d="m35.801 67.13-5.3737 4.3074-11.8-9.33e-4 -4.0747 2.6468"/><ellipse cx="13.779" cy="74.671" rx=".95151" ry=".93043"/><ellipse cx="12.482" cy="70.728" rx=".95151" ry=".93043"/><path d="m42.333 72.76l3.9688 3.9688v-15.875h-2.6458"/><ellipse cx="42.839" cy="60.921" rx=".95151" ry=".93043"/><path d="m38.52 69.751-6.8479 5.9401h-10.454l-0.07721 1.2971" stroke-linejoin="round"/><ellipse cx="21.199" cy="77.473" rx=".95151" ry=".93043"/><ellipse cx="77.308" cy="63.547" rx=".95151" ry=".93043"/><path d="m55.569 43.678 9.2356-7.8865 14.528-0.05188m-26.513 10.377 2.7499-2.4386 5.3961 5.4479 7.8347-6.6932 15.981 15.825-0.05189 5.2923h-6.6413"/><ellipse cx="80.058" cy="35.789" rx=".95151" ry=".93043"/><ellipse cx="8.5989" cy="43.147" rx=".95151" ry=".93043"/><path d="m7.5578 43.127-5.063-1e-6 9.3922-8.8052 0.07338-6.5305" stroke-linejoin="round"/><ellipse cx="11.911" cy="27.096" rx=".95151" ry=".93043"/><ellipse cx="7.4346" cy="24.601" rx=".95151" ry=".93043"/><ellipse cx="2.6651" cy="27.096" rx=".95151" ry=".93043"/><path d="m2.7149 28.158-0.14675 9.539 4.8429-4.9896-3e-7 -7.0442" stroke-linejoin="round"/><g transform="rotate(180 153.56 40.584)"><ellipse transform="translate(0 -217.62)" cx="47.005" cy="273.27" rx=".95151" ry=".93043"/><ellipse transform="translate(0 -217.62)" cx="46.886" cy="264.56" rx=".95151" ry=".93043"/><path transform="translate(0 -217.62)" d="m46.302 253.34-7.9471 7.971 3.9783-0.0335 3.9688 2.6458" stroke-linejoin="round"/><ellipse transform="translate(0 -217.62)" cx="47.005" cy="252.76" rx=".95151" ry=".93043"/><path d="m46.202 55.633-7.5595-0.06282-1.73e-4 -8.2527 4.9428 3.2097"/><ellipse cx="44.393" cy="51.174" rx=".95151" ry=".93043"/><ellipse cx="55.042" cy="51.24" rx=".95151" ry=".93043"/><ellipse cx="52.144" cy="46.84" rx=".95151" ry=".93043"/><ellipse cx="52.197" cy="55.645" rx=".95151" ry=".93043"/><path d="m37.324 39.244 5.0514-5.0514v-6.1739" stroke-linecap="round"/><ellipse cx="42.289" cy="27.316" rx=".95151" ry=".93043"/><path d="m52.853 56.363c14.499 15.154 14.499 15.061 14.499 15.061h19.831l9.2609-7.6706" stroke-linejoin="round"/><ellipse cx="97.137" cy="63.401" rx=".95151" ry=".93043"/><path d="m55.88 51.72c12.919 13.231 12.919 13.283 12.919 13.283v-6.7451" stroke-linejoin="round"/><ellipse cx="68.792" cy="57.414" rx=".95151" ry=".93043"/><ellipse cx="64.122" cy="53.316" rx=".95151" ry=".93043"/><path d="m65.064 52.654c3.6838-3.4763 3.6838-3.5282 3.6838-3.5282l7.8347 7.7309" stroke-linejoin="round"/><ellipse cx="77.405" cy="57.466" rx=".95151" ry=".93043"/><ellipse cx="43.355" cy="66.344" rx=".95151" ry=".93043"/><path d="m42.485 65.727c-6.0903-5.5033-6.0169-5.5033-6.0169-5.5033l2.0545-1.8344h11.153v13.281"/><ellipse cx="49.738" cy="72.581" rx=".95151" ry=".93043"/><path d="m49.684 61.737 16.462 16.315h10.583" stroke-linejoin="round"/><ellipse cx="77.475" cy="78.01" rx=".95151" ry=".93043"/><path d="m49.823 69.005 7.1175 6.6039v1.5735"/><ellipse cx="56.929" cy="78.01" rx=".95151" ry=".93043"/><ellipse cx="39.068" cy="69.02" rx=".95151" ry=".93043"/><ellipse cx="41.593" cy="71.92" rx=".95151" ry=".93043"/><path d="m42.333 72.76l3.9688 3.9688v-15.875h-2.6458"/><ellipse cx="42.839" cy="60.921" rx=".95151" ry=".93043"/><ellipse cx="77.308" cy="63.547" rx=".95151" ry=".93043"/><path d="m55.569 43.678 9.2356-7.8865-0.01141-7.3621m-11.974 17.687 2.7499-2.4386 5.3961 5.4479 7.8347-6.6932 15.981 15.825-0.05189 5.2923h-6.6413"/><ellipse cx="64.707" cy="27.504" rx=".95151" ry=".93043"/></g></g></svg>
