<svg width="100" height="100" version="1.1" viewBox="0 0 26.458333 26.458334" xmlns="http://www.w3.org/2000/svg"><path d="m9.0491 1.7393s-2.9913 4.926-4.0031 10.825c-0.95403 5.5622 2.0013 12.265 11.423 10.313 0 0 0.28634 1.0733 0.97591 1.2696 0.68957 0.19626 2.2022-0.66237 2.2593-1.3805 0.05711-0.71817-0.85485-1.0255-0.85485-1.0255 2.3765-1.8378 5.3106-5.6544 2.7979-9.7726-2.1963 0.91029-6.4747-1.5945-3.2632-5.5889-0.9824-2.5856-6.4057-4.0418-9.3346-4.6398z" color="#000000" color-rendering="auto" dominant-baseline="auto" fill="#fff" image-rendering="auto" shape-rendering="auto" solid-color="#000000" style="font-feature-settings:normal;font-variant-alternates:normal;font-variant-caps:normal;font-variant-ligatures:normal;font-variant-numeric:normal;font-variant-position:normal;isolation:auto;mix-blend-mode:normal;shape-padding:0;text-decoration-color:#000000;text-decoration-line:none;text-decoration-style:solid;text-indent:0;text-orientation:mixed;text-transform:none;white-space:normal"/><g transform="translate(0 -270.54)"><path d="m9.332 273.09c-2.5847 4.4023-4.8712 11.102-3.2619 15.377 0.76541 1.8775 2.1561 3.3216 4.0532 4.0933 1.8971 0.77179 3.7045 0.83696 6.4857 0.11651 0.42574 0.82498 0.27781 0.84231 0.6579 1.2506 0.32513 0.37384 2.0331-0.44722 1.7079-0.82106-0.40067-0.46113-0.65568-0.3984-1.0138-0.86137 2.9064-1.9835 3.8415-4.2926 3.9692-6.1126 0.0681-0.97078-0.10076-1.7855-0.35801-2.3471-0.19921-0.43601-0.45267-0.69792-0.85484-0.80917-1.3919 1.3208-1.413 0.56389-2.0089-0.48665-2.0826 0.71702-2.1687-0.0153-1.9548-1.5299-0.97233-0.7437-0.8144-1.2659-0.22585-1.9723-0.33441-1.0967-0.08256-1.6477 0.83968-1.9621-0.34336-0.90452-1.1691-1.5592-1.8631-1.9252-0.76371-0.39672-1.6655-0.70068-2.5316-0.93702-1.1866-0.37317-2.4871-0.64916-3.6407-1.0724zm0.4497 1.1896c0.20404 0.0263 1.4475 0.17669 2.9956 0.59912 0.83492 0.22783 1.6949 0.52259 2.3837 0.8804 0.56932 0.29574 0.89297 0.64532 1.1288 0.98635-0.16138 0.0888-0.21967 0.0722-0.40367 0.25937-0.35669 0.36291-0.58059 1.0154-0.37627 1.7937-0.07291 0.0976-0.26257 0.32268-0.37993 0.7763-0.12622 0.48789-0.0056 1.1541 0.53701 1.675-0.0097 0.0937 0.04633 0.41174 0.11325 0.76532-0.0068 4e-3 -0.01351 7e-3 -0.0201 0.0109 0 0-0.3552 0.23187-0.82196 0.83841-0.32296 0.41967-0.77434 1.3666-1.2037 2.243-0.33268-0.80514-0.69931-1.6202-0.94434-2.3599 0.50179-1.8296 1.8208-4.5636 1.8208-4.5636s-1.5299 1.9879-2.1971 3.6229c-0.26327-0.7917-0.43531-1.658-0.59364-2.3289 0.41388-1.6438 1.4083-3.2826 1.4083-3.2826s-1.3562 1.3811-1.6914 2.1465c-0.37695-1.0936-0.68817-2.4781-1.1669-3.282-0.08132 1.03 0.31334 2.8432 0.5185 3.7477-1.5024-0.44853-2.2021-0.22041-2.2021-0.22041s1.6161 0.53691 2.4103 1.057c0.26555 0.94357 0.34168 1.7177 0.64113 2.4622-2.0418-0.89604-3.5847-0.77506-3.5847-0.77506s2.3683 0.45776 3.9738 1.7486c0.27398 0.81977 0.46998 1.5946 0.85104 2.4921-2.3322-1.551-6.0009-0.83993-5.089-0.9198 0 0 3.0191 0.17643 5.4636 1.9092l0.22284 0.13517c0.3739 0.80248 0.46775 1.3733 0.94706 2.2082-3.1781-1.0109-5.8859-0.54031-5.8859-0.54031s3.5756 0.55449 6.6157 1.5743l0.04201 0.0128c0.42708 0.69309 0.2116 0.95585 0.72353 1.656-4.8368 0.78242-6.4645 0.36102-8.7553-3.3448-1.3782-3.3807-1.104-8.5858 2.5192-13.983zm6.1 7.9722c0.14399 0.19078 0.49386 0.83157 0.7442 0.9542 0.35531 0.17405 0.84666 0.19395 1.4046 0.12238 0.38499 0.51724 0.81281 0.92188 1.295 0.96809 0.50371 0.0482 0.94795-0.22419 1.3316-0.5626 0.48802 0.64089 0.26372 1.6856 0.22334 2.3472-0.11268 1.6062-0.94633 3.2281-3.7226 5.1055-0.56442-0.76641-0.86602-1.0273-1.3266-1.7848 1.2457-3.5034 1.8272-3.0385 2.7682-4.6887 0 0-0.76104 0.56318-1.5224 1.1854-0.61149 0.49968-1.3132 1.203-1.7908 2.4726-0.51807-0.91193-0.80249-1.4999-1.1938-2.3704 0.60085-1.1321 0.7647-2.9181 1.7893-3.7488z" color="#000000" color-rendering="auto" dominant-baseline="auto" image-rendering="auto" shape-rendering="auto" solid-color="#000000" style="font-feature-settings:normal;font-variant-alternates:normal;font-variant-caps:normal;font-variant-ligatures:normal;font-variant-numeric:normal;font-variant-position:normal;isolation:auto;mix-blend-mode:normal;shape-padding:0;text-decoration-color:#000000;text-decoration-line:none;text-decoration-style:solid;text-indent:0;text-orientation:mixed;text-transform:none;white-space:normal"/></g></svg>
